<svg enable-background="new 0 0 345.569 331.851" height="332" viewBox="0 0 345.569 331.851" width="346" xmlns="http://www.w3.org/2000/svg"><path d="m297.805 82.881s1.387 9.103-3.054 13.918c-2.909 3.155 9.573 49.25 14.302 59.913 5.922 13.353 16.384 19.236 23.993 28.426 3.477 16.028-17.727 101.013-17.727 101.013l-164.047 3.259-108.476-73.507-25.099-69.652 97.461-53.137z" fill="#021519"/><path d="m294.751 96.8s-46.342 42.245-160.629 59.656c-18.488 2.816-46.29 6.184-57.678 4.788-12.98-1.59-6.306 45.036 9.206 57.444 44.295 35.431 202.381 59.918 247.241-33.685 0 0 5.124 5.588 3.872 10.953l-5.993 55.761-96.45 52.983-176.653-45.529-38.603-90.361 21.077-51.85 210.199-44.44 47.465 10.362c0-.001 1.541 10.113-3.054 13.918z" fill="#232728"/><path d="m341.854 229.372s-3.851 63.299-17.781 80.282c-34.909 42.573-194.321 15.115-243.599-9.458-10.225-5.097-44.973-47.703-65.442-101.806-20.357-53.806-18.978-92.306-2.246-97.96 0 0 6.59-38.259 54.165-72.413 40.341-28.96 100.226-35.415 149.137-19.615 48.402 15.631 61.528 41.335 69.687 56.65 15.238 4.923 12.03 17.83 12.03 17.83-4.132 6.839-132.417 75.021-238.728 63.275-8.374-.925-12.323 3.59-10.375 20.208 3.457 29.484 6.211 61.146 52.387 78.948 104.611 40.329 217.129 25.909 235.674-49.356 0-.001 15.781 15.28 5.091 33.415z" fill="#c33c3e"/><path d="m341.854 229.372c-53.314 71.207-203.797 54.808-267.436 10.69-28.636-19.852-37.206-97.338-22.641-101.072 10.828-2.776 15.828-.618 27.77-1.126 113.102-4.812 206.229-72.812 206.229-72.812 15.238 4.923 12.03 17.83 12.03 17.83-3.904 6.461-99.349 67.913-226.942 66.684-1.854-.018-10.924-1.459-12.509 12.224-2.086 18.003 6.693 50.724 16.633 61.628 6.851 7.516 17.637 14.01 27.509 17.541 83.183 29.757 196.439 25.956 234.267-45.003-.001-0 15.78 15.281 5.09 33.416z" fill="#a0252b"/><path d="m336.099 190.169c-1.187-2.965-3.208-5.162-3.208-5.162-3.441 7.168-7.535 13.649-12.203 19.483-3.441 4.312-7.195 8.268-11.226 11.904-4.813 4.345-10.019 8.211-15.531 11.628-10.305 6.403-21.694 11.252-33.703 14.758-63.648 18.586-144.81-.282-174.578-24.092-15.508-12.405-22.188-59.032-9.206-57.44 11.388 1.39 39.189-1.976 57.678-4.792 31.495-4.798 57.828-11.48 79.45-18.654 13.517-4.471 25.194-9.137 35.135-13.642 5.982-2.712 11.341-5.371 16.1-7.896 4.998-2.655 9.324-5.166 13.022-7.448 11.56-7.132 16.921-12.016 16.921-12.016s35.075 49.67 41.349 93.369z" fill="#434747" opacity=".5"/><path d="m293.931 228.021c-10.305 6.403-21.694 11.252-33.703 14.758-12.427-50.326-31.69-84.388-46.656-104.978 13.517-4.471 25.194-9.137 35.135-13.642 24.724 39.947 38.273 78.75 45.224 103.862z" fill="#fff" opacity=".2"/><path d="m320.688 204.49c-3.441 4.312-7.195 8.268-11.226 11.904-11.008-42.977-29.649-77.372-44.654-100.13 4.998-2.655 9.324-5.166 13.022-7.448 21.417 34.954 35.553 73.13 42.858 95.674z" fill="#fff" opacity=".2"/><g fill="#a0252b"><path d="m12.787 100.43s43.776 1.61 85.408-6.802c0 0-61.352 2.171-82.703-2.372z"/><path d="m82.216 18.595s58.721-.814 116.994 42.052c0 0-26.786-33.174-88.892-53.415 0 0-20.687-2.039-28.102 11.363z"/><ellipse cx="75.752" cy="259.003" rx="4.604" ry="8.696" transform="matrix(.1485 -.9889 .9889 .1485 -191.6307 295.4421)"/></g></svg>