<svg width="3000" height="3000" viewBox="0 0 3000 3000" fill="none" xmlns="http://www.w3.org/2000/svg">
<g clip-path="url(#clip0_578_2155)">
<g clip-path="url(#clip1_578_2155)">
<path d="M766.76 430.724C1299.66 170.627 2065.8 201.945 2333.24 749.879C2492.09 1075.33 2231.45 1268.57 2349.61 1510.67C2461.19 1739.28 2680.04 1712.15 2776.96 1910.73C2906.19 2175.51 2697.26 2511.98 2214.45 2697.55C1744.92 2878 1162.04 2646.57 1056.42 1928.59C1010.11 1613.75 490.394 1816.44 209.59 1485.86C-104.849 1115.69 314.716 651.358 766.76 430.724Z" fill="#08F4DC"/>
</g>
<g clip-path="url(#clip2_578_2155)">
<path d="M2148.64 977.369C2105.07 1029.96 2025.42 1162.8 2053.4 1243.05C2068.04 1285.03 2114.14 1354.09 2251.31 1369.54C2284.82 1373.32 2303.95 1372.88 2320.32 1384.89C2335.96 1396.37 2343.14 1436.04 2322.95 1443.37C2321.09 1455.1 2313.05 1464.67 2303.33 1459.49C2301.39 1469.14 2286.19 1474.77 2280.31 1469.14C2275.82 1483.72 2251.63 1492.73 2237.47 1473.75C2242.33 1471.71 2245.02 1470.17 2250.29 1467.93C2253.14 1454.48 2241.8 1444.2 2221.47 1443.96C2171.13 1443.37 1974.82 1437.55 1899.84 1286.43C1846.32 1178.55 1883.25 1005.37 1941.3 903.268L2148.64 977.369Z" fill="#08F4DC"/>
<path d="M2257.55 1488.62C2248.52 1488.62 2240.19 1484.26 2234.18 1476.2C2233.81 1475.7 2233.55 1475.12 2233.44 1474.51C2233.32 1473.9 2233.35 1473.27 2233.51 1472.67C2233.67 1472.07 2233.97 1471.52 2234.38 1471.05C2234.79 1470.58 2235.3 1470.22 2235.88 1469.97C2238.27 1468.97 2240.12 1468.09 2242.03 1467.19C2243.44 1466.52 2244.89 1465.83 2246.58 1465.08C2246.86 1461.71 2245.96 1458.71 2243.89 1456.13C2239.87 1451.12 2231.68 1448.17 2221.42 1448.05C2165.33 1447.4 2113.93 1439.83 2068.66 1425.55C1986.55 1399.66 1928.52 1353.46 1896.16 1288.24C1864.53 1224.5 1867.02 1146.4 1874.67 1092.11C1884.19 1024.57 1907.17 954.999 1937.73 901.246C1938.21 900.408 1938.97 899.764 1939.87 899.428C1940.78 899.092 1941.77 899.086 1942.68 899.411L2150.03 973.516C2150.65 973.738 2151.2 974.106 2151.65 974.589C2152.1 975.071 2152.42 975.654 2152.6 976.288C2152.77 976.922 2152.79 977.589 2152.65 978.232C2152.51 978.875 2152.22 979.475 2151.8 979.982C2109.14 1031.48 2029.9 1163.21 2057.28 1241.71C2071.08 1281.3 2114.71 1350.03 2251.77 1365.48C2257.82 1366.16 2263.4 1366.7 2268.58 1367.21C2292.58 1369.55 2308.44 1371.09 2322.74 1381.59C2333.9 1389.77 2341.34 1410.48 2338.99 1426.81C2337.65 1436.1 2333.28 1442.91 2326.57 1446.27C2324.77 1454.3 2320.43 1460.8 2314.93 1463.53C2312.08 1464.99 2308.82 1465.4 2305.7 1464.71C2303.26 1469.1 2298.68 1472.71 2293.07 1474.47C2289.16 1475.69 2285.4 1475.79 2282.26 1474.84C2278.38 1481.6 2270.95 1486.74 2262.48 1488.2C2260.82 1488.48 2259.18 1488.62 2257.55 1488.62ZM2244.28 1475.19C2250.54 1480.81 2257.27 1480.78 2261.09 1480.12C2268.27 1478.88 2274.56 1473.87 2276.39 1467.93C2276.6 1467.26 2276.97 1466.66 2277.48 1466.18C2277.99 1465.69 2278.61 1465.35 2279.28 1465.17C2279.96 1465 2280.67 1465 2281.35 1465.17C2282.03 1465.35 2282.65 1465.7 2283.15 1466.18C2284.47 1467.44 2287.47 1467.63 2290.62 1466.65C2294.38 1465.47 2298.53 1462.55 2299.31 1458.68C2299.43 1458.06 2299.7 1457.47 2300.1 1456.96C2300.49 1456.46 2301 1456.06 2301.58 1455.78C2302.15 1455.51 2302.79 1455.38 2303.43 1455.39C2304.07 1455.41 2304.69 1455.57 2305.26 1455.87C2307.43 1457.02 2309.4 1457.13 2311.27 1456.2C2314.84 1454.43 2317.9 1449.01 2318.9 1442.73C2319.13 1441.26 2320.14 1440.03 2321.55 1439.52C2327.93 1437.2 2330.14 1430.69 2330.87 1425.64C2332.77 1412.42 2326.58 1394.57 2317.88 1388.19C2305.39 1379.02 2291.24 1377.64 2267.78 1375.36C2262.13 1374.82 2256.49 1374.24 2250.85 1373.61C2109.33 1357.67 2063.96 1285.81 2049.52 1244.4C2021.78 1164.85 2097.5 1034.79 2141.81 979.275L1943.17 908.286C1884.02 1014.47 1853.15 1183.09 1903.51 1284.6C1969.32 1417.24 2131 1438.81 2221.51 1439.86C2234.43 1440.01 2244.65 1443.97 2250.3 1451.01C2254.32 1456.02 2255.71 1462.17 2254.31 1468.78C2254.17 1469.42 2253.88 1470.02 2253.47 1470.53C2253.05 1471.04 2252.51 1471.44 2251.91 1471.7C2249.36 1472.78 2247.43 1473.7 2245.56 1474.59L2244.28 1475.19Z" fill="#1A1A1A"/>
<path d="M1677.32 1071.18C1734.85 1114.99 1982.76 1319.54 2006.84 1471.31C2017.18 1536.47 1975.46 1600.68 1911.58 1647.23C1793.59 1733.22 1668.6 1803.14 1599.64 1855.63C1555.51 1889.22 1487.71 1862.14 1516.66 1821.53C1564.68 1754.16 1615.29 1669.86 1691.14 1606.52C1763.01 1546.51 1801.46 1541.82 1795.93 1508.71C1787.55 1458.52 1510.09 1431.96 1413.34 1384.39C1228.14 1293.32 1210.17 1096.04 1349.76 1002.19C1489.36 908.349 1604.18 1015.48 1677.32 1071.18Z" fill="#08F4DC"/>
<path d="M1554.61 1874.81C1538.41 1874.81 1523.7 1869.72 1514.78 1861.11C1503.15 1849.87 1502.6 1834.19 1513.32 1819.16C1522.22 1806.67 1531.08 1793.79 1540.46 1780.15C1580.71 1721.64 1626.32 1655.32 1688.51 1603.39C1714.8 1581.44 1736.24 1567.11 1753.47 1555.6C1781.96 1536.55 1794.97 1527.86 1791.89 1509.39C1787.51 1483.15 1686.91 1460.68 1598.16 1440.85C1526.74 1424.9 1452.89 1408.4 1411.53 1388.07C1318.72 1342.43 1259.9 1264.81 1254.19 1180.44C1249.29 1108.15 1283.29 1041.95 1347.48 998.801C1478.54 910.685 1588.83 996.906 1661.8 1053.96C1667.78 1058.65 1673.78 1063.31 1679.81 1067.93C1689.19 1075.07 1773.83 1140.22 1857.6 1227.94C1948.94 1323.59 2000.52 1405.26 2010.89 1470.67C2020.77 1532.91 1985.45 1598.47 1914.01 1650.54C1851.43 1696.15 1786.84 1737.27 1729.85 1773.55C1678.66 1806.15 1634.44 1834.3 1602.13 1858.89C1587.55 1869.98 1570.38 1874.81 1554.61 1874.81ZM1462.22 969.148C1424.69 969.148 1388.26 981.25 1352.05 1005.59C1290.37 1047.06 1257.68 1110.59 1262.37 1179.88C1267.89 1261.31 1325 1336.38 1415.15 1380.71C1455.63 1400.62 1529 1417.01 1599.95 1432.86C1704.44 1456.2 1794.69 1476.36 1799.98 1508.04C1803.93 1531.73 1787.63 1542.62 1758.03 1562.4C1740.96 1573.8 1719.72 1588 1693.77 1609.67C1632.45 1660.88 1587.17 1726.71 1547.22 1784.79C1537.82 1798.45 1528.94 1811.36 1520 1823.9C1511.6 1835.68 1511.77 1846.81 1520.48 1855.22C1535.68 1869.9 1570.91 1872.34 1597.15 1852.37C1629.74 1827.57 1674.08 1799.34 1725.43 1766.64C1782.32 1730.42 1846.8 1689.37 1909.17 1643.92C1978.04 1593.73 2012.16 1531.05 2002.78 1471.95C1976.43 1305.81 1677.84 1076.73 1674.83 1074.44C1668.77 1069.8 1662.74 1065.12 1656.73 1060.41C1620.5 1032.08 1575.4 996.816 1523.94 979.653C1502.95 972.657 1482.42 969.148 1462.22 969.148Z" fill="#1A1A1A"/>
<path d="M1677.32 1071.18C1604.18 1015.48 1489.35 908.347 1349.76 1002.2C1210.17 1096.04 1228.14 1293.32 1413.34 1384.39C1505.73 1429.82 1762.92 1456.09 1793.18 1502.08C1814.15 1451.61 1883.94 1372.66 1944.29 1337.84C1859.76 1222.26 1717.04 1101.43 1677.32 1071.18Z" fill="#1A1A1A"/>
<path d="M1793.18 1506.17C1792.5 1506.17 1791.83 1506 1791.23 1505.68C1790.64 1505.36 1790.13 1504.89 1789.75 1504.33C1773.81 1480.09 1684.5 1460.14 1598.14 1440.85C1526.73 1424.89 1452.88 1408.39 1411.52 1388.06C1318.72 1342.42 1259.9 1264.81 1254.18 1180.44C1249.29 1108.15 1283.29 1041.95 1347.47 998.797C1478.54 910.68 1588.82 996.904 1661.79 1053.96C1667.77 1058.65 1673.77 1063.31 1679.81 1067.93C1714.21 1094.12 1860.47 1216.29 1947.6 1335.42C1947.94 1335.88 1948.18 1336.41 1948.3 1336.98C1948.42 1337.54 1948.42 1338.12 1948.3 1338.68C1948.18 1339.24 1947.95 1339.77 1947.61 1340.24C1947.27 1340.7 1946.84 1341.09 1946.34 1341.38C1884.64 1376.99 1816.59 1456.41 1796.97 1503.65C1796.66 1504.39 1796.14 1505.03 1795.46 1505.48C1794.79 1505.93 1793.99 1506.17 1793.18 1506.17ZM1462.22 969.146C1424.69 969.146 1388.26 981.249 1352.05 1005.59C1290.37 1047.06 1257.68 1110.59 1262.37 1179.88C1267.89 1261.3 1325 1336.38 1415.15 1380.71C1455.64 1400.61 1529 1417 1599.94 1432.85C1685.73 1452.02 1767.08 1470.19 1792.08 1494.45C1814.66 1446.59 1878.85 1372.5 1938.3 1336.61C1851.46 1219.44 1708.68 1100.21 1674.83 1074.44C1668.77 1069.8 1662.74 1065.12 1656.74 1060.41C1620.5 1032.07 1575.4 996.814 1523.94 979.651C1502.96 972.655 1482.42 969.146 1462.22 969.146Z" fill="#1A1A1A"/>
<path d="M1516.66 1821.53C1487.71 1862.14 1555.51 1889.22 1599.64 1855.63C1615.88 1843.27 1635.26 1829.92 1656.9 1815.64C1624.8 1807.9 1579.93 1780.58 1559.09 1760.38C1544.39 1781.55 1530.41 1802.24 1516.66 1821.53Z" fill="white"/>
<path d="M1554.59 1874.88H1554.15C1538.09 1874.79 1523.75 1869.77 1514.78 1861.1C1503.15 1849.87 1502.6 1834.19 1513.32 1819.16C1522.28 1806.59 1531.2 1793.61 1540.65 1779.88C1545.61 1772.69 1550.62 1765.39 1555.73 1758.05C1556.07 1757.56 1556.51 1757.15 1557.02 1756.85C1557.54 1756.55 1558.11 1756.36 1558.7 1756.31C1559.29 1756.25 1559.89 1756.32 1560.45 1756.52C1561.02 1756.71 1561.53 1757.03 1561.96 1757.44C1582.15 1777.01 1626.5 1804.09 1657.87 1811.66C1658.65 1811.85 1659.35 1812.26 1659.9 1812.84C1660.45 1813.42 1660.81 1814.15 1660.95 1814.93C1661.09 1815.72 1660.99 1816.53 1660.68 1817.26C1660.36 1818 1659.84 1818.62 1659.17 1819.06C1634.98 1835.02 1616.85 1847.68 1602.13 1858.89C1588.56 1869.21 1571.7 1874.88 1554.59 1874.88ZM1520 1823.9C1511.6 1835.68 1511.77 1846.81 1520.48 1855.22C1535.68 1869.9 1570.91 1872.34 1597.15 1852.37C1610.47 1842.24 1626.51 1830.95 1647.2 1817.16C1617.06 1807.55 1580.26 1785.05 1559.77 1766.61C1555.64 1772.57 1551.52 1778.54 1547.42 1784.52C1537.94 1798.28 1529 1811.28 1520 1823.9ZM1747.11 1445.97C1747.11 1445.97 1741.01 1455.04 1731.16 1469.75C1768.17 1481.46 1793.49 1494.08 1795.93 1508.71C1801.46 1541.82 1763.01 1546.5 1691.14 1606.52C1668.52 1625.42 1648.17 1646.19 1629.44 1667.81C1645.86 1656.55 1665.56 1644.02 1693.21 1625.15C1755.41 1582.72 1818.98 1575.48 1823.13 1525.81C1827.27 1476.14 1792.72 1468.89 1747.11 1445.97Z" fill="#1A1A1A"/>
<path d="M1629.44 1671.91C1628.65 1671.91 1627.88 1671.69 1627.22 1671.26C1626.56 1670.84 1626.04 1670.24 1625.71 1669.52C1625.38 1668.81 1625.27 1668.02 1625.38 1667.24C1625.49 1666.46 1625.82 1665.73 1626.34 1665.14C1647.09 1641.19 1667.43 1620.99 1688.51 1603.39C1714.79 1581.43 1736.23 1567.1 1753.46 1555.59C1784.3 1534.99 1794.81 1526.97 1791.88 1509.39C1789.99 1498.1 1769.15 1486.08 1729.92 1473.66C1729.31 1473.47 1728.76 1473.14 1728.3 1472.69C1727.84 1472.25 1727.5 1471.71 1727.29 1471.11C1727.07 1470.51 1727.01 1469.87 1727.09 1469.24C1727.17 1468.61 1727.39 1468.01 1727.75 1467.48C1737.6 1452.76 1743.71 1443.69 1743.71 1443.69C1744.26 1442.86 1745.1 1442.26 1746.07 1442.01C1747.04 1441.76 1748.06 1441.87 1748.96 1442.31C1755.64 1445.68 1762.06 1448.68 1768.25 1451.59C1803.3 1468.01 1830.98 1480.98 1827.21 1526.16C1824.25 1561.56 1793.92 1576.41 1755.51 1595.21C1737.02 1604.27 1716.05 1614.54 1695.52 1628.54C1680.45 1638.82 1667.81 1647.18 1656.65 1654.55C1647.3 1660.74 1639.22 1666.08 1631.75 1671.2C1631.07 1671.67 1630.27 1671.91 1629.44 1671.91ZM1737.59 1467.52C1778.24 1480.88 1797.54 1493.46 1799.98 1508.04C1803.93 1531.72 1787.63 1542.62 1758.03 1562.4C1740.96 1573.8 1719.72 1588 1693.77 1609.67C1680.73 1620.56 1667.97 1632.47 1655.21 1645.68C1665.58 1638.82 1677.25 1631.08 1690.9 1621.77C1711.91 1607.43 1733.16 1597.03 1751.91 1587.85C1789.39 1569.5 1816.47 1556.24 1819.04 1525.47C1822.33 1485.98 1800.67 1475.82 1764.77 1459C1759.53 1456.54 1754.13 1454.01 1748.51 1451.24C1746.37 1454.43 1742.59 1460.05 1737.59 1467.52Z" fill="#1A1A1A"/>
<path d="M1720.43 1991.7C1654.75 1934.69 1642.17 1937.03 1599.64 1855.63C1534.62 1852.81 1516.66 1821.53 1516.66 1821.53C1516.66 1821.53 1467.45 1884.77 1456.7 1905.43C1451.49 1915.46 1456.21 1927.77 1466.8 1931.74L1725.73 2028.68C1725.72 2028.68 1743.33 2011.58 1720.43 1991.7Z" fill="white"/>
<path d="M1725.72 2032.77C1725.24 2032.77 1724.75 2032.69 1724.28 2032.51L1465.36 1935.57C1462.32 1934.43 1459.55 1932.66 1457.25 1930.38C1454.95 1928.09 1453.15 1925.35 1451.99 1922.32C1450.83 1919.29 1450.32 1916.05 1450.51 1912.82C1450.69 1909.58 1451.56 1906.42 1453.06 1903.54C1463.86 1882.78 1511.4 1821.61 1513.42 1819.01C1513.83 1818.48 1514.37 1818.05 1514.98 1817.78C1515.6 1817.51 1516.27 1817.39 1516.95 1817.44C1518.31 1817.53 1519.54 1818.3 1520.22 1819.49C1520.25 1819.54 1524.65 1826.87 1536.54 1834.43C1547.59 1841.46 1567.54 1850.13 1599.82 1851.54C1600.54 1851.57 1601.23 1851.79 1601.84 1852.17C1602.45 1852.56 1602.94 1853.1 1603.28 1853.73C1636.37 1917.08 1651.35 1929.3 1687.53 1958.83C1697.64 1967.08 1709.11 1976.44 1723.12 1988.6C1731.62 1995.98 1736.05 2003.97 1736.29 2012.34C1736.6 2023.69 1728.92 2031.29 1728.59 2031.61C1727.82 2032.35 1726.79 2032.77 1725.72 2032.77ZM1516.61 1828.3C1505.44 1842.8 1469.2 1890.29 1460.34 1907.32C1459.38 1909.17 1458.82 1911.2 1458.7 1913.28C1458.58 1915.36 1458.9 1917.44 1459.65 1919.38C1460.4 1921.33 1461.55 1923.1 1463.03 1924.56C1464.51 1926.03 1466.29 1927.17 1468.24 1927.9L1724.42 2023.81C1726.02 2021.56 1728.25 2017.49 1728.08 2012.48C1727.88 2006.52 1724.4 2000.57 1717.73 1994.79C1703.82 1982.7 1692.4 1973.39 1682.33 1965.17C1645.63 1935.22 1630.21 1922.63 1597.09 1859.6C1546.94 1856.87 1524.5 1837.46 1516.61 1828.3Z" fill="#1A1A1A"/>
<path d="M1588.14 1913.09C1587.24 1913.09 1586.36 1912.79 1585.65 1912.24C1584.93 1911.69 1584.42 1910.93 1584.19 1910.06C1583.95 1909.19 1584.01 1908.27 1584.35 1907.43C1584.7 1906.6 1585.3 1905.9 1586.08 1905.45L1615.27 1888.58C1616.21 1888.04 1617.33 1887.89 1618.38 1888.17C1619.43 1888.45 1620.33 1889.14 1620.87 1890.08C1621.42 1891.02 1621.57 1892.14 1621.29 1893.19C1621.01 1894.24 1620.32 1895.13 1619.38 1895.68L1590.19 1912.54C1589.57 1912.9 1588.86 1913.09 1588.14 1913.09ZM1611.17 1933.71C1610.26 1933.71 1609.39 1933.41 1608.67 1932.86C1607.95 1932.31 1607.43 1931.55 1607.2 1930.67C1606.97 1929.8 1607.03 1928.88 1607.37 1928.04C1607.72 1927.21 1608.33 1926.52 1609.11 1926.06L1633.96 1911.7C1634.9 1911.2 1636 1911.08 1637.02 1911.37C1638.05 1911.66 1638.92 1912.34 1639.46 1913.26C1639.99 1914.18 1640.15 1915.27 1639.89 1916.31C1639.63 1917.34 1638.98 1918.23 1638.07 1918.79L1613.22 1933.16C1612.6 1933.52 1611.89 1933.71 1611.17 1933.71ZM1635.39 1953.63C1634.49 1953.63 1633.61 1953.34 1632.89 1952.79C1632.17 1952.24 1631.66 1951.47 1631.42 1950.6C1631.19 1949.73 1631.25 1948.8 1631.59 1947.97C1631.94 1947.14 1632.55 1946.44 1633.33 1945.99L1654.14 1933.96C1655.08 1933.42 1656.2 1933.27 1657.25 1933.55C1658.31 1933.83 1659.2 1934.51 1659.75 1935.45C1660.29 1936.4 1660.44 1937.51 1660.16 1938.56C1659.88 1939.61 1659.19 1940.51 1658.25 1941.05L1637.44 1953.08C1636.82 1953.44 1636.11 1953.63 1635.39 1953.63ZM955.208 2150.68C954.132 2150.68 953.101 2150.26 952.334 2149.51C951.567 2148.76 951.126 2147.73 951.107 2146.66C951.088 2145.59 951.491 2144.55 952.23 2143.77C952.969 2142.99 953.985 2142.53 955.06 2142.49L1551.56 2120.58C1553.84 2120.55 1555.72 2122.26 1555.81 2124.52C1555.89 2126.78 1554.12 2128.68 1551.86 2128.77L955.361 2150.68L955.208 2150.68ZM1444.03 2515.15C1442.44 2515.15 1440.87 2514.75 1439.47 2513.99C1438.07 2513.23 1436.88 2512.13 1436.01 2510.8C1435.15 2509.47 1434.62 2507.94 1434.5 2506.36C1434.37 2504.77 1434.64 2503.18 1435.28 2501.72L1655.83 2003.33C1656.85 2001.01 1658.76 1999.2 1661.13 1998.28C1663.5 1997.37 1666.13 1997.43 1668.46 1998.45C1670.78 1999.48 1672.6 2001.38 1673.51 2003.74C1674.43 2006.11 1674.37 2008.74 1673.34 2011.06L1452.8 2509.45C1452.05 2511.15 1450.82 2512.59 1449.26 2513.6C1447.71 2514.61 1445.89 2515.15 1444.03 2515.15Z" fill="#1A1A1A"/>
<path d="M1714.55 2034.19C1713.46 2034.19 1712.35 2034 1711.27 2033.61L1610.23 1996.89C1607.85 1996.03 1605.9 1994.25 1604.83 1991.95C1603.76 1989.65 1603.64 1987.03 1604.51 1984.64C1605.38 1982.26 1607.16 1980.32 1609.46 1979.25C1611.76 1978.18 1614.39 1978.06 1616.78 1978.93L1717.82 2015.64C1719.94 2016.41 1721.72 2017.9 1722.84 2019.84C1723.97 2021.79 1724.37 2024.07 1723.98 2026.29C1723.59 2028.5 1722.43 2030.51 1720.71 2031.95C1718.98 2033.4 1716.8 2034.19 1714.55 2034.19ZM1494.15 2534.42C1493.06 2534.42 1491.96 2534.24 1490.88 2533.84L1389.84 2497.13C1387.45 2496.26 1385.51 2494.49 1384.43 2492.19C1383.36 2489.89 1383.24 2487.26 1384.11 2484.88C1384.98 2482.5 1386.76 2480.56 1389.06 2479.49C1391.36 2478.42 1394 2478.3 1396.38 2479.17L1497.42 2515.88C1499.54 2516.65 1501.32 2518.13 1502.45 2520.08C1503.57 2522.03 1503.98 2524.31 1503.59 2526.52C1503.2 2528.74 1502.04 2530.74 1500.31 2532.19C1498.58 2533.63 1496.4 2534.42 1494.15 2534.42ZM896.066 2727.17C614.013 2727.17 384.545 2498.09 384.545 2216.52C384.545 1934.94 614.013 1705.86 896.066 1705.86C1178.12 1705.86 1407.59 1934.94 1407.59 2216.52C1407.59 2498.09 1178.12 2727.17 896.066 2727.17ZM896.066 1749.56C638.144 1749.56 428.312 1959.03 428.312 2216.52C428.312 2474 638.144 2683.48 896.066 2683.48C1153.99 2683.48 1363.82 2474 1363.82 2216.52C1363.82 1959.03 1153.99 1749.56 896.066 1749.56ZM2382.12 2727.23C2346.05 2727.22 2310.08 2723.4 2274.81 2715.83C2141.21 2687.24 2026.76 2608.43 1952.54 2493.91C1878.32 2379.39 1853.22 2242.87 1881.85 2109.5C1910.49 1976.13 1989.43 1861.87 2104.15 1787.78C2218.86 1713.68 2355.62 1688.62 2489.21 1717.21C2622.81 1745.79 2737.26 1824.6 2811.48 1939.13C2885.7 2053.65 2910.81 2190.17 2882.17 2323.54C2830.78 2562.93 2618.06 2727.23 2382.12 2727.23ZM2381.08 1749.4C2291.92 1749.4 2204.55 1774.97 2127.92 1824.46C2023.02 1892.22 1950.83 1996.7 1924.65 2118.66C1870.59 2370.42 2031.79 2619.15 2283.98 2673.11C2316.23 2680.02 2349.13 2683.52 2382.11 2683.53C2597.88 2683.54 2792.37 2533.31 2839.38 2314.38C2865.56 2192.42 2842.6 2067.58 2774.73 1962.86C2706.86 1858.13 2602.21 1786.07 2480.04 1759.93C2447.51 1752.95 2414.34 1749.42 2381.08 1749.4Z" fill="#1A1A1A"/>
<path d="M2664.25 2488.29C2663.44 2488.29 2662.66 2488.05 2661.99 2487.61C2661.32 2487.17 2660.79 2486.54 2660.47 2485.8C2660.16 2485.07 2660.06 2484.25 2660.21 2483.46C2660.35 2482.68 2660.72 2481.95 2661.27 2481.36C2710.04 2430.22 2743.69 2366.5 2758.6 2297.09C2791.47 2143.99 2729.13 1987.84 2599.78 1899.28C2598.91 1898.65 2598.31 1897.71 2598.12 1896.65C2597.94 1895.6 2598.17 1894.51 2598.78 1893.62C2599.39 1892.74 2600.32 1892.13 2601.37 1891.92C2602.43 1891.71 2603.52 1891.93 2604.42 1892.52C2736.52 1982.97 2800.19 2142.44 2766.62 2298.81C2751.4 2369.69 2717.03 2434.77 2667.22 2487.01C2666.83 2487.42 2666.37 2487.74 2665.86 2487.96C2665.35 2488.18 2664.8 2488.29 2664.25 2488.29ZM2300.45 2600.56C2300.15 2600.56 2299.87 2600.53 2299.58 2600.47C2196.85 2578.49 2108.84 2517.88 2051.77 2429.82C1994.7 2341.76 1975.39 2236.78 1997.41 2134.22C2012.57 2063.62 2046.75 1998.75 2096.25 1946.61C2097 1945.84 2098.03 1945.39 2099.11 1945.36C2100.19 1945.34 2101.24 1945.74 2102.03 1946.48C2102.81 1947.23 2103.27 1948.25 2103.3 1949.33C2103.34 1950.41 2102.94 1951.46 2102.2 1952.25C2053.74 2003.29 2020.28 2066.81 2005.44 2135.94C1983.88 2236.36 2002.78 2339.15 2058.66 2425.37C2114.54 2511.6 2200.72 2570.94 2301.3 2592.46C2302.3 2592.67 2303.17 2593.24 2303.77 2594.06C2304.37 2594.88 2304.64 2595.89 2304.53 2596.9C2304.42 2597.9 2303.95 2598.84 2303.19 2599.51C2302.44 2600.19 2301.46 2600.56 2300.45 2600.56Z" fill="#1A1A1A"/>
<path d="M2605.14 2398.58C2604.36 2398.58 2603.61 2398.36 2602.95 2397.95C2602.3 2397.54 2601.77 2396.95 2601.44 2396.26C2601.1 2395.56 2600.97 2394.78 2601.06 2394.02C2601.15 2393.25 2601.45 2392.52 2601.94 2391.92C2663.49 2315.2 2680.24 2210.22 2645.66 2117.97C2645.28 2116.95 2645.32 2115.83 2645.77 2114.84C2646.22 2113.85 2647.04 2113.08 2648.06 2112.7C2649.08 2112.32 2650.21 2112.36 2651.2 2112.81C2652.19 2113.26 2652.96 2114.08 2653.35 2115.1C2688.94 2210.04 2671.69 2318.08 2608.34 2397.04C2607.96 2397.52 2607.47 2397.91 2606.91 2398.17C2606.36 2398.44 2605.75 2398.58 2605.14 2398.58ZM2334.34 2442.7C2334.05 2442.7 2333.76 2442.67 2333.47 2442.61C2272.98 2429.66 2221.16 2393.97 2187.55 2342.12C2153.94 2290.26 2142.57 2228.45 2155.54 2168.06C2155.78 2167.01 2156.43 2166.1 2157.34 2165.52C2158.24 2164.94 2159.35 2164.74 2160.4 2164.97C2161.45 2165.2 2162.38 2165.83 2162.97 2166.72C2163.56 2167.62 2163.77 2168.72 2163.56 2169.78C2151.06 2228.03 2162.02 2287.65 2194.44 2337.67C2226.85 2387.69 2276.84 2422.11 2335.19 2434.6C2336.18 2434.81 2337.06 2435.38 2337.65 2436.2C2338.25 2437.01 2338.52 2438.02 2338.42 2439.03C2338.31 2440.04 2337.83 2440.97 2337.08 2441.65C2336.33 2442.32 2335.35 2442.7 2334.34 2442.7ZM778.993 1857.72C778.015 1857.72 777.068 1857.37 776.324 1856.73C775.58 1856.1 775.087 1855.22 774.935 1854.26C774.783 1853.29 774.981 1852.3 775.494 1851.47C776.007 1850.64 776.801 1850.02 777.732 1849.72C838.392 1830.16 903.796 1826.03 966.866 1837.78C967.396 1837.88 967.901 1838.08 968.352 1838.37C968.804 1838.67 969.193 1839.05 969.497 1839.49C969.802 1839.93 970.016 1840.43 970.127 1840.96C970.238 1841.49 970.245 1842.03 970.146 1842.56C970.047 1843.09 969.844 1843.59 969.55 1844.04C969.256 1844.49 968.876 1844.88 968.431 1845.18C967.987 1845.49 967.487 1845.7 966.96 1845.81C966.432 1845.92 965.888 1845.93 965.359 1845.83C903.626 1834.33 839.618 1838.37 780.254 1857.51C779.847 1857.65 779.422 1857.72 778.993 1857.72ZM895.42 2534.06C834.224 2534.06 774.307 2516.36 721.911 2482.12C721.46 2481.82 721.072 2481.44 720.768 2481C720.465 2480.55 720.252 2480.05 720.142 2479.53C720.032 2479 720.027 2478.46 720.127 2477.93C720.227 2477.4 720.431 2476.9 720.726 2476.45C721.022 2476 721.403 2475.61 721.848 2475.3C722.293 2475 722.794 2474.79 723.322 2474.68C723.849 2474.57 724.393 2474.56 724.923 2474.66C725.452 2474.76 725.957 2474.97 726.408 2475.26C795.638 2520.5 878.373 2536.12 959.371 2519.24C1040.37 2502.36 1109.93 2455 1155.25 2385.89C1155.87 2385.02 1156.79 2384.42 1157.84 2384.22C1158.89 2384.02 1159.97 2384.23 1160.86 2384.82C1161.76 2385.4 1162.39 2386.31 1162.62 2387.34C1162.85 2388.38 1162.67 2389.47 1162.12 2390.38C1115.6 2461.32 1044.19 2509.94 961.048 2527.26C939.464 2531.77 917.472 2534.05 895.42 2534.06ZM696.318 2329.95C694.868 2329.95 693.463 2329.18 692.716 2327.82C662.935 2273.59 656.091 2211.04 673.442 2151.67C690.793 2092.31 730.262 2043.24 784.579 2013.51C785.051 2013.25 785.57 2013.09 786.106 2013.03C786.642 2012.97 787.184 2013.02 787.701 2013.17C788.218 2013.32 788.701 2013.57 789.121 2013.91C789.541 2014.25 789.89 2014.66 790.149 2015.14C790.408 2015.61 790.572 2016.13 790.63 2016.66C790.689 2017.2 790.641 2017.74 790.49 2018.25C790.339 2018.77 790.088 2019.25 789.75 2019.67C789.413 2020.09 788.996 2020.44 788.523 2020.7C736.129 2049.37 698.055 2096.7 681.32 2153.97C664.585 2211.23 671.185 2271.57 699.913 2323.88C700.255 2324.5 700.428 2325.2 700.417 2325.91C700.405 2326.63 700.208 2327.32 699.846 2327.93C699.483 2328.55 698.967 2329.05 698.349 2329.41C697.73 2329.76 697.031 2329.94 696.318 2329.95Z" fill="#1A1A1A"/>
<path d="M896.065 2601.79C683.262 2601.79 510.136 2428.96 510.136 2216.52C510.136 2128.91 538.841 2046.35 593.144 1977.77C593.474 1977.34 593.887 1976.97 594.36 1976.7C594.832 1976.43 595.355 1976.25 595.896 1976.18C596.438 1976.11 596.987 1976.15 597.513 1976.3C598.039 1976.44 598.531 1976.69 598.959 1977.03C599.388 1977.37 599.744 1977.79 600.008 1978.27C600.271 1978.74 600.437 1979.27 600.495 1979.81C600.553 1980.35 600.502 1980.9 600.345 1981.42C600.188 1981.95 599.928 1982.43 599.581 1982.85C546.432 2049.97 518.339 2130.77 518.339 2216.51C518.339 2424.44 687.786 2593.6 896.063 2593.6C897.151 2593.6 898.195 2594.03 898.965 2594.8C899.735 2595.57 900.168 2596.61 900.169 2597.7C900.169 2598.78 899.737 2599.82 898.967 2600.59C898.198 2601.36 897.154 2601.79 896.065 2601.79ZM521.649 1762.36C519.098 1762.36 516.61 1761.57 514.528 1760.1C512.446 1758.63 510.873 1756.55 510.027 1754.15C509.181 1751.74 509.104 1749.14 509.805 1746.69C510.507 1744.24 511.953 1742.07 513.944 1740.48C610.599 1663.17 727.258 1617.45 851.306 1608.24C978.125 1598.84 1102.87 1628.69 1212.07 1694.59C1213.46 1695.42 1214.67 1696.52 1215.64 1697.82C1216.6 1699.12 1217.3 1700.59 1217.69 1702.16C1218.08 1703.73 1218.15 1705.36 1217.91 1706.96C1217.67 1708.56 1217.11 1710.1 1216.27 1711.48C1215.44 1712.86 1214.33 1714.07 1213.03 1715.03C1211.72 1715.98 1210.24 1716.68 1208.67 1717.06C1207.09 1717.44 1205.46 1717.51 1203.86 1717.27C1202.26 1717.02 1200.72 1716.46 1199.34 1715.62C1094.54 1652.38 974.818 1623.73 853.128 1632.75C734.059 1641.58 622.093 1685.47 529.333 1759.66C527.157 1761.41 524.444 1762.36 521.649 1762.36ZM2690.36 1716.59C2688.13 1716.59 2685.94 1715.99 2684.04 1714.84C2529.28 1622.13 2343.79 1605.38 2175.12 1668.89C2172.07 1670.04 2168.68 1669.93 2165.71 1668.59C2162.73 1667.24 2160.41 1664.78 2159.26 1661.73C2158.11 1658.68 2158.22 1655.3 2159.56 1652.33C2160.91 1649.36 2163.38 1647.04 2166.44 1645.89C2342.18 1579.72 2535.46 1597.17 2696.7 1693.77C2699.01 1695.15 2700.8 1697.25 2701.8 1699.75C2702.8 1702.25 2702.95 1705 2702.23 1707.59C2701.51 1710.18 2699.96 1712.47 2697.82 1714.09C2695.67 1715.72 2693.05 1716.6 2690.36 1716.59ZM1002.58 1385.07H1257.2C1286.23 1385.07 1286.6 1424.34 1258.3 1424.34C1166.05 1424.34 1113.49 1465.79 1055.45 1465.79C977.706 1465.79 960.085 1385.07 1002.58 1385.07Z" fill="#1A1A1A"/>
<path d="M1055.45 1469.89C1001.21 1469.89 975.95 1433.07 975.95 1408.19C975.95 1391.66 986.405 1380.97 1002.58 1380.97H1257.21C1274.38 1380.97 1283.36 1393.1 1283.36 1405.08C1283.36 1416.68 1274.75 1428.43 1258.3 1428.43C1207.52 1428.43 1168.7 1441.23 1134.45 1452.52C1107.37 1461.45 1081.79 1469.89 1055.45 1469.89ZM1002.58 1389.17C991.042 1389.17 984.154 1396.28 984.154 1408.2C984.154 1443.1 1025.56 1461.7 1055.45 1461.7C1080.46 1461.7 1104.29 1453.84 1131.88 1444.74C1166.71 1433.26 1206.2 1420.24 1258.3 1420.24C1269.94 1420.24 1275.15 1412.63 1275.15 1405.08C1275.15 1397.42 1269.54 1389.17 1257.21 1389.17H1002.58V1389.17ZM1543.8 2268.68C1543.54 2268.68 1543.28 2268.67 1543.03 2268.65L895.311 2228.78C892.052 2228.58 889.006 2227.1 886.844 2224.65C884.682 2222.21 883.58 2219.01 883.781 2215.76C883.982 2212.51 885.469 2209.47 887.916 2207.31C890.362 2205.15 893.567 2204.05 896.826 2204.25L1544.54 2244.12C1547.74 2244.31 1550.73 2245.74 1552.89 2248.1C1555.06 2250.46 1556.21 2253.57 1556.11 2256.76C1556.01 2259.96 1554.67 2262.99 1552.37 2265.21C1550.07 2267.44 1547 2268.68 1543.8 2268.68Z" fill="#1A1A1A"/>
<path d="M896.066 2286.45C934.752 2286.45 966.114 2255.14 966.114 2216.52C966.114 2177.9 934.752 2146.59 896.066 2146.59C857.379 2146.59 826.017 2177.9 826.017 2216.52C826.017 2255.14 857.379 2286.45 896.066 2286.45Z" fill="#1A1A1A"/>
<path d="M896.066 2290.54C855.177 2290.54 821.914 2257.33 821.914 2216.52C821.914 2175.7 855.177 2142.49 896.066 2142.49C936.954 2142.49 970.217 2175.7 970.217 2216.52C970.217 2257.33 936.954 2290.54 896.066 2290.54ZM896.066 2150.68C859.704 2150.68 830.121 2180.22 830.121 2216.52C830.121 2252.82 859.704 2282.35 896.066 2282.35C932.427 2282.35 962.011 2252.82 962.011 2216.52C962.011 2180.21 932.427 2150.68 896.066 2150.68Z" fill="#1A1A1A"/>
<path d="M1152.91 1441.86L1272.11 1683.74Z" fill="#08F4DC"/>
<path d="M1272.12 1702.85C1268.54 1702.86 1265.03 1701.86 1261.99 1699.97C1258.96 1698.08 1256.51 1695.38 1254.93 1692.17L1135.73 1450.3C1133.52 1445.75 1133.2 1440.52 1134.84 1435.74C1136.48 1430.95 1139.96 1427.02 1144.5 1424.79C1149.04 1422.55 1154.29 1422.21 1159.08 1423.83C1163.88 1425.45 1167.84 1428.9 1170.1 1433.42L1289.29 1675.3C1290.73 1678.21 1291.4 1681.44 1291.24 1684.68C1291.08 1687.93 1290.09 1691.08 1288.37 1693.83C1286.65 1696.59 1284.26 1698.87 1281.42 1700.45C1278.57 1702.02 1275.38 1702.85 1272.12 1702.85Z" fill="#1A1A1A"/>
<path d="M2402.5 2208.84L2156.66 1555.09L2156.63 1555L2118.4 1453.36C2116.33 1447.97 2112.22 1443.62 2106.95 1441.26C2101.68 1438.89 2095.69 1438.7 2090.28 1440.72C2084.87 1442.75 2080.48 1446.83 2078.07 1452.08C2075.66 1457.32 2075.43 1463.3 2077.43 1468.72L2104.7 1541.22H1212.64C1212.53 1541.22 1212.43 1541.24 1212.31 1541.24C1211.45 1541.25 1210.59 1541.31 1209.73 1541.43L1209.47 1541.45C1208.55 1541.59 1207.64 1541.79 1206.74 1542.04C1206.54 1542.1 1206.34 1542.17 1206.14 1542.23C1205.45 1542.45 1204.78 1542.69 1204.12 1542.97C1203.89 1543.07 1203.65 1543.17 1203.42 1543.28C1203.27 1543.34 1203.12 1543.39 1202.98 1543.46C1201.48 1544.21 1200.07 1545.12 1198.78 1546.18C1198.62 1546.31 1198.46 1546.45 1198.31 1546.59C1197.71 1547.11 1197.14 1547.65 1196.6 1548.23C1196.5 1548.34 1196.4 1548.44 1196.3 1548.54C1195.68 1549.24 1195.12 1549.96 1194.6 1550.72C1194.5 1550.87 1194.4 1551.02 1194.31 1551.17C1193.88 1551.83 1193.49 1552.51 1193.14 1553.21C1193.08 1553.33 1193 1553.43 1192.94 1553.55L876.365 2207.01C875.114 2209.59 874.384 2212.39 874.218 2215.26C874.052 2218.12 874.453 2220.99 875.398 2223.7C876.342 2226.41 877.813 2228.91 879.724 2231.05C881.635 2233.19 883.951 2234.94 886.538 2236.19C889.125 2237.44 891.934 2238.16 894.803 2238.33C897.672 2238.49 900.546 2238.09 903.26 2237.15C905.975 2236.21 908.476 2234.74 910.622 2232.83C912.769 2230.92 914.517 2228.61 915.769 2226.03L1212.81 1612.89L1534.68 2266.03C1536.48 2269.69 1539.28 2272.78 1542.75 2274.94C1546.22 2277.09 1550.23 2278.24 1554.32 2278.23C1557.52 2278.23 1560.68 2277.53 1563.57 2276.18C1566.47 2274.83 1569.04 2272.87 1571.09 2270.42L2128.98 1605.78L2361.53 2224.2C2363.1 2228.36 2365.9 2231.94 2369.56 2234.48C2373.22 2237.01 2377.57 2238.37 2382.02 2238.37C2385.56 2238.37 2389.04 2237.51 2392.17 2235.87C2395.31 2234.23 2397.99 2231.86 2400.01 2228.96C2402.02 2226.06 2403.3 2222.71 2403.73 2219.21C2404.17 2215.7 2403.74 2212.15 2402.5 2208.84ZM1559.12 2216.65L1247.8 1584.91H2089.4L1559.12 2216.65Z" fill="#08F4DC"/>
<path d="M1554.32 2282.33C1549.46 2282.34 1544.7 2280.99 1540.57 2278.43C1536.45 2275.86 1533.13 2272.2 1530.99 2267.84L1212.84 1622.24L919.459 2227.82C917.316 2232.2 913.988 2235.89 909.85 2238.48C905.713 2241.07 900.932 2242.45 896.049 2242.47C892.135 2242.47 888.271 2241.59 884.752 2239.88C871.852 2233.65 866.433 2218.1 872.672 2205.23L1189.25 1551.77C1189.35 1551.59 1189.45 1551.4 1189.56 1551.22C1189.9 1550.54 1190.36 1549.73 1190.87 1548.95L1191.21 1548.42C1191.84 1547.5 1192.52 1546.63 1193.24 1545.82L1193.54 1545.5C1194.23 1544.77 1194.91 1544.12 1195.62 1543.49L1196.19 1543.01C1197.72 1541.75 1199.4 1540.67 1201.17 1539.79C1201.56 1539.61 1201.96 1539.44 1202.35 1539.27C1203.31 1538.87 1204.11 1538.58 1204.91 1538.32L1205.63 1538.1C1206.7 1537.8 1207.78 1537.56 1208.88 1537.4C1208.95 1537.39 1209.18 1537.36 1209.26 1537.36C1210.25 1537.23 1211.25 1537.16 1212.26 1537.15C1212.38 1537.13 1212.51 1537.12 1212.64 1537.13H2098.78L2073.59 1470.16C2071.15 1463.67 2071.39 1456.63 2074.26 1450.32C2077.12 1444.01 2082.28 1439.19 2088.78 1436.76C2091.98 1435.55 2095.38 1434.99 2098.79 1435.1C2102.2 1435.22 2105.55 1436.01 2108.66 1437.42C2111.77 1438.82 2114.57 1440.83 2116.91 1443.32C2119.24 1445.81 2121.05 1448.73 2122.24 1451.93L2406.34 2207.4C2411.38 2220.79 2404.56 2235.78 2391.15 2240.8C2388.23 2241.9 2385.13 2242.47 2382.02 2242.47C2371.25 2242.47 2361.47 2235.7 2357.68 2225.64L2127.61 1613.8L1574.23 2273.06C1571.8 2275.96 1568.75 2278.3 1565.31 2279.9C1561.87 2281.51 1558.11 2282.34 1554.32 2282.33ZM1212.81 1608.8C1213.58 1608.8 1214.33 1609.02 1214.98 1609.42C1215.63 1609.82 1216.15 1610.4 1216.49 1611.09L1538.36 2264.23C1539.66 2266.88 1541.61 2269.17 1544.02 2270.88C1546.44 2272.59 1549.24 2273.67 1552.18 2274.01C1555.12 2274.38 1558.1 2274 1560.86 2272.91C1563.61 2271.82 1566.04 2270.06 1567.94 2267.79L2125.83 1603.16C2126.29 1602.61 2126.89 1602.19 2127.56 1601.95C2128.24 1601.7 2128.96 1601.63 2129.67 1601.75C2130.38 1601.87 2131.04 1602.18 2131.59 1602.63C2132.14 1603.09 2132.57 1603.68 2132.82 1604.35L2365.37 2222.76C2366.65 2226.14 2368.93 2229.05 2371.9 2231.1C2374.87 2233.16 2378.4 2234.27 2382.02 2234.28C2384.89 2234.27 2387.72 2233.58 2390.26 2232.24C2392.8 2230.91 2394.98 2228.98 2396.62 2226.63C2398.25 2224.27 2399.29 2221.55 2399.65 2218.71C2400 2215.86 2399.66 2212.97 2398.66 2210.29L2114.56 1454.81C2113.74 1452.62 2112.5 1450.62 2110.91 1448.92C2109.31 1447.21 2107.39 1445.84 2105.26 1444.88C2103.14 1443.91 2100.84 1443.38 2098.51 1443.3C2096.18 1443.22 2093.85 1443.6 2091.67 1444.43C2089.48 1445.24 2087.47 1446.48 2085.76 1448.07C2084.06 1449.66 2082.69 1451.58 2081.73 1453.7C2080.75 1455.83 2080.21 1458.12 2080.13 1460.45C2080.06 1462.78 2080.44 1465.1 2081.27 1467.28L2108.54 1539.78C2108.77 1540.4 2108.85 1541.07 2108.77 1541.73C2108.69 1542.38 2108.45 1543.01 2108.07 1543.55C2107.69 1544.1 2107.19 1544.54 2106.6 1544.85C2106.02 1545.16 2105.36 1545.32 2104.7 1545.32H1212.64C1212.72 1545.33 1212.54 1545.34 1212.37 1545.34C1211.68 1545.35 1210.98 1545.4 1210.29 1545.49L1209.99 1545.52C1209.27 1545.63 1208.56 1545.79 1207.85 1545.99L1207.36 1546.15C1206.8 1546.32 1206.26 1546.52 1205.73 1546.75L1205.15 1546.99L1204.76 1547.16C1203.56 1547.76 1202.42 1548.5 1201.38 1549.35L1201.13 1549.57C1199.94 1550.59 1198.88 1551.75 1197.99 1553.04L1197.75 1553.41C1197.41 1553.94 1197.09 1554.49 1196.81 1555.06C1196.72 1555.22 1196.64 1555.37 1196.54 1555.52L880.058 2208.79C878.01 2213.03 877.731 2217.91 879.28 2222.35C880.829 2226.8 884.081 2230.45 888.322 2232.5C890.728 2233.67 893.37 2234.28 896.046 2234.28C899.389 2234.26 902.661 2233.32 905.493 2231.55C908.326 2229.78 910.604 2227.25 912.07 2224.25L1209.12 1611.11C1209.45 1610.42 1209.98 1609.83 1210.63 1609.43C1211.28 1609.02 1212.04 1608.8 1212.81 1608.8ZM1559.12 2220.75C1558.35 2220.75 1557.6 2220.54 1556.95 2220.13C1556.3 2219.73 1555.78 2219.15 1555.44 2218.46L1244.12 1586.72C1243.81 1586.1 1243.66 1585.4 1243.7 1584.71C1243.73 1584.01 1243.94 1583.34 1244.31 1582.75C1244.68 1582.15 1245.19 1581.67 1245.8 1581.33C1246.41 1580.99 1247.1 1580.81 1247.8 1580.81H2089.4C2090.18 1580.81 2090.95 1581.04 2091.61 1581.45C2092.26 1581.87 2092.79 1582.47 2093.12 1583.18C2093.45 1583.88 2093.57 1584.67 2093.47 1585.44C2093.37 1586.22 2093.05 1586.94 2092.54 1587.54L1562.26 2219.28C1561.88 2219.74 1561.4 2220.11 1560.85 2220.36C1560.31 2220.62 1559.72 2220.75 1559.12 2220.75ZM1254.39 1589.01L1560.02 2209.2L2080.61 1589.01H1254.39ZM2268.1 1527.25C2265.04 1527.25 2262.05 1526.32 2259.53 1524.57C2257.02 1522.83 2255.09 1520.37 2254.01 1517.51C2253.32 1515.66 2253 1513.69 2253.06 1511.72C2253.13 1509.75 2253.58 1507.81 2254.4 1506.02C2255.22 1504.22 2256.38 1502.6 2257.82 1501.26C2259.27 1499.91 2260.96 1498.86 2262.81 1498.17L2359.06 1462.1C2390.71 1450.23 2406.8 1414.88 2394.91 1383.28C2390.37 1371.21 2382.34 1361.11 2371.84 1354.06C2370.74 1389.96 2348.32 1423.42 2312.6 1436.8L2216.35 1472.87C2212.62 1474.27 2208.48 1474.14 2204.84 1472.49C2201.21 1470.84 2198.38 1467.82 2196.98 1464.09C2195.58 1460.36 2195.72 1456.23 2197.37 1452.6C2199.02 1448.98 2202.04 1446.15 2205.78 1444.75L2302.02 1408.68C2329.12 1398.53 2344.81 1371.16 2341.31 1343.67C2332.68 1343.14 2324.04 1344.44 2315.96 1347.49L2164.7 1404.17C2152.15 1408.88 2138.51 1408.41 2126.3 1402.86C2114.1 1397.3 2104.8 1387.33 2100.12 1374.79C2090.51 1349.01 2103.68 1320.17 2129.47 1310.5L2248.35 1265.95C2295.06 1248.44 2347.29 1271.73 2365.51 1317.92C2368.82 1318.99 2372.09 1320.25 2375.3 1321.71C2397.53 1331.79 2414.5 1349.91 2423.08 1372.72C2440.79 1419.83 2416.81 1472.54 2369.63 1490.22L2273.38 1526.29C2271.69 1526.92 2269.91 1527.25 2268.1 1527.25ZM2280.41 1290.16C2273.26 1290.16 2266 1291.42 2258.92 1294.07L2140.05 1338.62C2129.75 1342.49 2124.48 1354.01 2128.32 1364.31C2129.24 1366.78 2130.63 1369.04 2132.43 1370.96C2134.22 1372.89 2136.38 1374.44 2138.78 1375.53C2141.18 1376.62 2143.77 1377.23 2146.4 1377.32C2149.04 1377.41 2151.66 1376.98 2154.13 1376.05L2305.39 1319.36C2312.97 1316.51 2320.9 1314.67 2328.96 1313.9C2317.33 1298.92 2299.28 1290.16 2280.41 1290.16Z" fill="#1A1A1A"/>
<path d="M2088.1 1508.74L2054.77 1420.18C2044.74 1393.56 2057.59 1364.37 2084.02 1353.73L2104.51 1345.48L2123.94 1393.61L2103.46 1401.85L2136.76 1490.48L2088.1 1508.74ZM1533.55 2390.6C1533.33 2390.6 1533.12 2390.59 1532.9 2390.55L895.425 2290.5C894.378 2290.3 893.45 2289.7 892.837 2288.83C892.224 2287.96 891.973 2286.88 892.139 2285.83C892.304 2284.78 892.873 2283.84 893.724 2283.2C894.575 2282.56 895.642 2282.27 896.7 2282.4L1534.18 2382.46C1535.19 2382.63 1536.11 2383.17 1536.74 2383.97C1537.38 2384.78 1537.68 2385.8 1537.6 2386.82C1537.52 2387.84 1537.06 2388.8 1536.31 2389.5C1535.56 2390.2 1534.57 2390.59 1533.55 2390.6Z" fill="#1A1A1A"/>
<path d="M1554.31 2323.65C1591.52 2323.65 1621.69 2293.54 1621.69 2256.39C1621.69 2219.24 1591.52 2189.12 1554.31 2189.12C1517.1 2189.12 1486.93 2219.24 1486.93 2256.39C1486.93 2293.54 1517.1 2323.65 1554.31 2323.65Z" fill="#1A1A1A"/>
<path d="M1554.31 2384.28C1483.68 2384.28 1426.21 2326.91 1426.21 2256.39C1426.21 2185.87 1483.68 2128.5 1554.31 2128.5C1624.95 2128.5 1682.42 2185.87 1682.42 2256.39C1682.42 2326.91 1624.95 2384.28 1554.31 2384.28ZM1554.31 2144.89C1492.73 2144.89 1442.62 2194.91 1442.62 2256.39C1442.62 2317.87 1492.73 2367.89 1554.31 2367.89C1615.9 2367.89 1666 2317.87 1666 2256.39C1666 2194.91 1615.9 2144.89 1554.31 2144.89Z" fill="#1A1A1A"/>
<path d="M1554.31 2392.23C1479.28 2392.23 1418.24 2331.29 1418.24 2256.39C1418.24 2181.48 1479.28 2120.55 1554.31 2120.55C1629.34 2120.55 1690.39 2181.48 1690.39 2256.39C1690.39 2331.29 1629.34 2392.23 1554.31 2392.23ZM1554.31 2128.74C1483.81 2128.74 1426.45 2186 1426.45 2256.39C1426.45 2326.77 1483.81 2384.04 1554.31 2384.04C1624.82 2384.04 1682.18 2326.77 1682.18 2256.39C1682.18 2186 1624.82 2128.74 1554.31 2128.74Z" fill="#1A1A1A"/>
<path d="M2002.46 1556.89H1270.98C1263.16 1556.89 1260.62 1550.15 1260.68 1541.22L2064.31 1541.22C2052.31 1550.16 2033.1 1556.89 2002.46 1556.89Z" fill="white"/>
<path d="M2089.4 1545.32H1247.8C1246.71 1545.32 1245.67 1544.88 1244.9 1544.12C1244.13 1543.35 1243.69 1542.31 1243.69 1541.22C1243.69 1540.13 1244.13 1539.09 1244.9 1538.32C1245.67 1537.55 1246.71 1537.12 1247.8 1537.12H2089.4C2090.49 1537.12 2091.53 1537.55 2092.3 1538.32C2093.07 1539.09 2093.5 1540.13 2093.5 1541.22C2093.5 1542.31 2093.07 1543.35 2092.3 1544.12C2091.53 1544.88 2090.49 1545.32 2089.4 1545.32Z" fill="#1A1A1A"/>
<path d="M2251.31 1369.54C2284.82 1373.32 2303.95 1372.88 2320.32 1384.89C2335.96 1396.37 2343.14 1436.04 2322.95 1443.37C2321.09 1455.1 2313.05 1464.67 2303.33 1459.49C2301.39 1469.14 2286.19 1474.77 2280.31 1469.14C2275.82 1483.72 2251.63 1492.73 2237.47 1473.75" fill="#08F4DC"/>
<path d="M2257.55 1488.63C2248.52 1488.63 2240.19 1484.26 2234.18 1476.2C2233.54 1475.33 2233.28 1474.24 2233.44 1473.18C2233.6 1472.11 2234.18 1471.15 2235.04 1470.51C2235.91 1469.86 2236.99 1469.58 2238.06 1469.73C2239.13 1469.88 2240.1 1470.45 2240.76 1471.3C2247.85 1480.81 2256.54 1480.91 2261.08 1480.13C2268.26 1478.89 2274.56 1473.87 2276.39 1467.93C2276.6 1467.27 2276.97 1466.66 2277.48 1466.18C2277.98 1465.7 2278.6 1465.35 2279.28 1465.17C2279.96 1465 2280.67 1465 2281.35 1465.18C2282.03 1465.35 2282.65 1465.7 2283.15 1466.18C2284.47 1467.45 2287.47 1467.64 2290.61 1466.65C2294.38 1465.48 2298.53 1462.55 2299.3 1458.69C2299.43 1458.06 2299.7 1457.47 2300.09 1456.97C2300.49 1456.46 2301 1456.06 2301.57 1455.79C2302.15 1455.51 2302.79 1455.38 2303.43 1455.4C2304.07 1455.41 2304.69 1455.58 2305.26 1455.88C2307.43 1457.03 2309.39 1457.14 2311.27 1456.2C2314.83 1454.43 2317.9 1449.02 2318.89 1442.73C2319.13 1441.26 2320.14 1440.03 2321.54 1439.52C2327.93 1437.21 2330.14 1430.7 2330.86 1425.64C2332.76 1412.42 2326.58 1394.57 2317.88 1388.19C2305.39 1379.03 2291.23 1377.65 2267.77 1375.36C2262.13 1374.82 2256.48 1374.24 2250.84 1373.62C2250.31 1373.56 2249.79 1373.39 2249.32 1373.13C2248.84 1372.87 2248.43 1372.52 2248.09 1372.1C2247.75 1371.68 2247.5 1371.2 2247.35 1370.68C2247.2 1370.16 2247.16 1369.62 2247.22 1369.09C2247.28 1368.55 2247.44 1368.03 2247.7 1367.56C2247.97 1367.09 2248.32 1366.67 2248.74 1366.34C2249.16 1366 2249.65 1365.75 2250.17 1365.61C2250.69 1365.46 2251.23 1365.41 2251.77 1365.48C2257.81 1366.16 2263.39 1366.7 2268.57 1367.21C2292.58 1369.55 2308.43 1371.09 2322.74 1381.59C2333.89 1389.77 2341.33 1410.48 2338.98 1426.81C2337.65 1436.1 2333.27 1442.91 2326.57 1446.27C2324.77 1454.3 2320.43 1460.8 2314.92 1463.54C2312.08 1464.99 2308.81 1465.4 2305.69 1464.71C2303.25 1469.1 2298.68 1472.71 2293.07 1474.47C2289.16 1475.69 2285.4 1475.79 2282.26 1474.84C2278.38 1481.6 2270.94 1486.74 2262.48 1488.2C2260.82 1488.48 2259.18 1488.63 2257.55 1488.63Z" fill="#1A1A1A"/>
<path d="M1374.64 806.644C1277.89 843.52 1119.32 1018.37 1222.02 1228.1C1324.72 1437.82 1507.67 1657.05 1506.24 1745.39C1504.56 1849.36 1451.01 1864.09 1410.23 1990.44C1380.17 2083.57 1359.75 2239.63 1354.22 2278.26C1348.7 2316.89 1420.86 2334.1 1433.04 2299.85C1467.24 2203.61 1667.65 1867.3 1704.96 1772.1C1742.28 1676.89 1698.06 1469.93 1640.01 1319.54C1581.96 1169.14 1552.61 1049.11 1543.79 1018.75C1534.96 988.395 1439.98 781.737 1374.64 806.644Z" fill="#08F4DC"/>
<path d="M1640 1319.54C1581.95 1169.14 1552.6 1049.1 1543.78 1018.75C1534.96 988.398 1439.98 781.737 1374.64 806.644C1277.89 843.52 1119.32 1018.37 1222.02 1228.1C1286.2 1359.16 1381.73 1493.94 1444 1598.16C1514.73 1612.19 1652.26 1577.33 1701.91 1531.97C1687.45 1459.63 1665.01 1384.33 1640 1319.54Z" fill="#1A1A1A"/>
<path d="M1480.22 1605.37C1466.69 1605.37 1454.18 1604.36 1443.2 1602.18C1442.64 1602.07 1442.11 1601.84 1441.64 1601.51C1441.17 1601.18 1440.77 1600.75 1440.48 1600.26C1420.52 1566.85 1397.15 1530.33 1372.42 1491.67C1320.67 1410.78 1262.01 1319.09 1218.33 1229.89C1178.25 1148.05 1173.89 1062.21 1205.71 981.667C1242.47 888.63 1318.28 823.739 1373.17 802.816C1383.63 798.829 1395.22 799.929 1407.62 806.09C1471.89 838.026 1541.12 994.889 1547.73 1017.61C1549.11 1022.38 1551 1029.36 1553.4 1038.2C1566.87 1087.9 1594.91 1191.32 1643.83 1318.06C1669.92 1385.65 1691.98 1461.33 1705.94 1531.17C1706.08 1531.86 1706.03 1532.57 1705.82 1533.24C1705.6 1533.91 1705.21 1534.51 1704.69 1534.99C1662.27 1573.74 1555.66 1605.37 1480.22 1605.37ZM1446.58 1594.48C1516.5 1607.34 1647.86 1573.76 1697.43 1530.48C1683.53 1461.72 1661.81 1387.43 1636.17 1321.01C1587.1 1193.87 1558.99 1090.17 1545.48 1040.34C1543.09 1031.54 1541.21 1024.59 1539.84 1019.89C1531.87 992.467 1462.88 842.704 1403.96 813.422C1393.7 808.326 1384.33 807.332 1376.1 810.467C1322.84 830.77 1249.19 893.944 1213.34 984.671C1182.39 1063.02 1186.66 1146.57 1225.7 1226.29C1269.18 1315.07 1327.7 1406.55 1379.33 1487.26C1403.72 1525.37 1426.77 1561.4 1446.58 1594.48Z" fill="#1A1A1A"/>
<path d="M1701.91 1531.97C1687.45 1459.63 1665.01 1384.34 1640 1319.54C1611.38 1245.39 1589.75 1178.65 1574.11 1126.37C1525.29 1188.46 1588.67 1241.57 1600.44 1273.83C1613.43 1309.44 1617.04 1350.26 1617.75 1377.31C1619.11 1428.73 1611.21 1464.61 1636.2 1465.99C1676.39 1468.2 1680.77 1529.95 1654.95 1561.4C1674.04 1552.47 1690.37 1542.51 1701.91 1531.97ZM1563.46 1591.45C1555.34 1574.78 1538.7 1544.92 1518.91 1509.42C1457.15 1398.65 1363.83 1231.25 1344.56 1138.94C1315.94 1001.81 1389.5 915.633 1429.6 895.385C1430.4 894.979 1431.28 894.736 1432.17 894.668C1433.07 894.6 1433.97 894.709 1434.82 894.989C1435.67 895.269 1436.46 895.714 1437.14 896.298C1437.83 896.883 1438.38 897.596 1438.79 898.397C1439.19 899.196 1439.44 900.068 1439.51 900.962C1439.57 901.856 1439.46 902.754 1439.18 903.606C1438.9 904.457 1438.46 905.246 1437.87 905.925C1437.29 906.605 1436.57 907.163 1435.77 907.566C1398.72 926.278 1330.95 1006.76 1357.95 1136.16C1376.79 1226.43 1469.5 1392.74 1530.86 1502.78C1553 1542.49 1569.32 1571.78 1577.08 1588.29C1575.4 1591.36 1568.57 1591.52 1563.46 1591.45Z" fill="white"/>
<path d="M1604.58 1580.63C1594.43 1561.04 1578.13 1531.79 1560.26 1499.73C1499.62 1390.87 1407.97 1226.37 1384.85 1137.75C1350.75 1007.01 1426.47 929.308 1476.6 904.002C1477.4 903.596 1478.27 903.352 1479.17 903.283C1480.06 903.215 1480.96 903.324 1481.82 903.604C1482.67 903.884 1483.46 904.329 1484.14 904.914C1484.82 905.499 1485.38 906.213 1485.78 907.014C1486.19 907.813 1486.43 908.685 1486.5 909.579C1486.57 910.473 1486.46 911.371 1486.18 912.223C1485.9 913.075 1485.45 913.863 1484.87 914.542C1484.28 915.222 1483.57 915.78 1482.77 916.184C1462.19 926.577 1433.21 949.832 1413.6 983.95C1388.62 1027.41 1383.4 1078 1398.09 1134.31C1420.77 1221.25 1511.91 1384.84 1572.22 1493.09C1592.29 1529.12 1608.04 1557.4 1617.75 1576.33C1615.73 1579.1 1610.81 1580.91 1604.58 1580.63Z" fill="white"/>
<path d="M1480.22 1605.37C1466.69 1605.37 1454.18 1604.36 1443.2 1602.18C1442.64 1602.07 1442.11 1601.84 1441.64 1601.51C1441.17 1601.18 1440.77 1600.75 1440.48 1600.26C1420.52 1566.85 1397.15 1530.33 1372.42 1491.67C1320.67 1410.78 1262.01 1319.09 1218.33 1229.89C1178.25 1148.05 1173.89 1062.21 1205.71 981.667C1242.47 888.63 1318.28 823.739 1373.17 802.816C1383.63 798.829 1395.22 799.929 1407.62 806.09C1471.89 838.026 1541.12 994.889 1547.73 1017.61C1549.11 1022.38 1551 1029.36 1553.4 1038.2C1566.87 1087.9 1594.91 1191.32 1643.83 1318.06C1669.92 1385.65 1691.98 1461.33 1705.94 1531.17C1706.08 1531.86 1706.03 1532.57 1705.82 1533.24C1705.6 1533.91 1705.21 1534.51 1704.69 1534.99C1662.27 1573.74 1555.66 1605.37 1480.22 1605.37ZM1446.58 1594.48C1516.5 1607.34 1647.86 1573.76 1697.43 1530.48C1683.53 1461.72 1661.81 1387.43 1636.17 1321.01C1587.1 1193.87 1558.99 1090.17 1545.48 1040.34C1543.09 1031.54 1541.21 1024.59 1539.84 1019.89C1531.87 992.467 1462.88 842.704 1403.96 813.422C1393.7 808.326 1384.33 807.332 1376.1 810.467C1322.84 830.77 1249.19 893.944 1213.34 984.671C1182.39 1063.02 1186.66 1146.57 1225.7 1226.29C1269.18 1315.07 1327.7 1406.55 1379.33 1487.26C1403.72 1525.37 1426.77 1561.4 1446.58 1594.48ZM1486.63 1676.8C1499.26 1704.25 1506.53 1727.5 1506.24 1745.39C1504.56 1849.36 1451.01 1864.09 1410.23 1990.44C1388.1 2059.02 1371.19 2161.7 1361.61 2226.51L1403.67 2248.31C1403.67 2248.31 1390.56 2158.86 1414.03 2048.48C1451.88 1870.47 1496.3 1884.89 1527.68 1821.53C1555.47 1765.41 1519.65 1714.54 1486.63 1676.8Z" fill="#1A1A1A"/>
<path d="M1403.66 2252.4C1403.01 2252.4 1402.36 2252.25 1401.77 2251.94L1359.71 2230.15C1358.96 2229.75 1358.34 2229.14 1357.95 2228.38C1357.56 2227.62 1357.42 2226.76 1357.54 2225.91C1373.05 2121.08 1389.46 2041.43 1406.32 1989.19C1423.97 1934.52 1443.72 1901.02 1461.16 1871.47C1483.53 1833.54 1501.19 1803.59 1502.14 1745.32C1502.4 1729.07 1496.11 1707.22 1482.9 1678.51C1482.49 1677.61 1482.41 1676.6 1482.69 1675.66C1482.96 1674.71 1483.57 1673.9 1484.4 1673.36C1485.23 1672.83 1486.22 1672.61 1487.19 1672.75C1488.17 1672.88 1489.06 1673.36 1489.71 1674.1C1524.07 1713.36 1559.85 1765.81 1531.35 1823.35C1521.19 1843.86 1509.79 1856.33 1497.71 1869.54C1472.4 1897.22 1443.71 1928.59 1418.04 2049.33C1395.01 2157.65 1407.59 2246.83 1407.72 2247.72C1407.8 2248.3 1407.76 2248.89 1407.6 2249.46C1407.43 2250.02 1407.15 2250.54 1406.76 2250.99C1406.38 2251.43 1405.9 2251.79 1405.37 2252.03C1404.83 2252.28 1404.25 2252.4 1403.66 2252.4ZM1366.09 2224.22L1398.69 2241.12C1396.18 2216.87 1390.61 2138.91 1410.01 2047.63C1436.15 1924.71 1465.64 1892.46 1491.66 1864.01C1503.33 1851.25 1514.35 1839.19 1524 1819.71C1545.66 1775.98 1527.56 1735.81 1501.02 1700.79C1507.47 1718.6 1510.54 1733.35 1510.34 1745.45C1509.36 1805.87 1491.21 1836.65 1468.22 1875.62C1451.01 1904.81 1431.5 1937.89 1414.13 1991.7C1397.56 2043.03 1381.41 2121.25 1366.09 2224.22Z" fill="#1A1A1A"/>
<path d="M1354.22 2278.26C1348.69 2316.89 1420.86 2334.09 1433.03 2299.85C1439.08 2282.84 1450.33 2258.31 1464.94 2228.96C1437.8 2225.8 1396.15 2211.95 1365.91 2198.17C1360.21 2234.61 1356.23 2264.21 1354.22 2278.26Z" fill="white"/>
<path d="M1401.31 2322.31C1396.36 2322.3 1391.43 2321.7 1386.62 2320.52C1366.81 2315.64 1346.94 2300.16 1350.16 2277.68C1350.59 2274.7 1351.1 2271.02 1351.7 2266.72C1353.96 2250.62 1357.36 2226.27 1361.86 2197.54C1361.95 2196.91 1362.2 2196.32 1362.56 2195.8C1362.93 2195.29 1363.41 2194.86 1363.97 2194.56C1364.52 2194.26 1365.14 2194.09 1365.78 2194.07C1366.41 2194.05 1367.04 2194.18 1367.62 2194.44C1394.67 2206.78 1436.82 2221.57 1465.41 2224.9C1466.07 2224.98 1466.69 2225.21 1467.24 2225.58C1467.78 2225.94 1468.23 2226.44 1468.54 2227.02C1468.86 2227.59 1469.03 2228.24 1469.04 2228.89C1469.05 2229.55 1468.91 2230.2 1468.62 2230.79C1452.9 2262.36 1442.52 2285.4 1436.9 2301.22C1431.54 2316.32 1416.59 2322.31 1401.31 2322.31ZM1369.14 2204.1C1365.06 2230.47 1361.94 2252.78 1359.83 2267.86C1359.23 2272.16 1358.71 2275.85 1358.28 2278.84C1355.77 2296.37 1371.69 2308.41 1388.59 2312.56C1404.34 2316.44 1423.76 2313.68 1429.17 2298.48C1434.59 2283.23 1444.28 2261.53 1458.73 2232.25C1431.4 2227.98 1394.92 2215.38 1369.14 2204.1Z" fill="#1A1A1A"/>
<path d="M1707.55 1562.41C1693.51 1573.25 1686.28 1598.99 1686.28 1661.54C1686.28 1812.64 1551.91 1963.49 1560.79 2048.48C1622.08 1936.26 1685.56 1821.59 1704.96 1772.09C1723.93 1723.7 1721.82 1646.44 1707.55 1562.41Z" fill="white"/>
<path d="M1401.31 2322.31C1396.36 2322.3 1391.43 2321.7 1386.62 2320.51C1366.81 2315.64 1346.94 2300.16 1350.16 2277.68C1350.59 2274.69 1351.1 2271.01 1351.7 2266.7C1359.03 2214.39 1378.48 2075.45 1406.32 1989.18C1423.97 1934.51 1443.72 1901.02 1461.16 1871.47C1483.53 1833.54 1501.19 1803.58 1502.14 1745.32C1502.94 1695.7 1442.45 1601.15 1372.41 1491.66C1320.66 1410.77 1262.01 1319.09 1218.33 1229.9C1178.25 1148.05 1173.89 1062.22 1205.71 981.67C1242.47 888.636 1318.28 823.742 1373.17 802.819C1383.63 798.832 1395.22 799.935 1407.62 806.093C1471.88 838.032 1541.12 994.892 1547.72 1017.61C1549.11 1022.38 1551 1029.36 1553.4 1038.2C1566.87 1087.9 1594.91 1191.32 1643.83 1318.07C1674.37 1397.18 1699.32 1487.49 1712.29 1565.85C1722.85 1629.61 1730.81 1717.4 1708.78 1773.59C1691.07 1818.79 1637.74 1916.31 1581.28 2019.55C1519.12 2133.21 1454.85 2250.74 1436.9 2301.22C1431.54 2316.31 1416.59 2322.31 1401.31 2322.31ZM1376.1 810.47C1322.84 830.774 1249.19 893.947 1213.34 984.674C1182.39 1063.02 1186.66 1146.57 1225.7 1226.3C1269.17 1315.07 1327.7 1406.55 1379.33 1487.25C1450.08 1597.85 1511.19 1693.36 1510.35 1745.45C1509.37 1805.87 1491.21 1836.65 1468.23 1875.62C1451.02 1904.81 1431.5 1937.89 1414.14 1991.69C1386.51 2077.28 1367.13 2215.72 1359.84 2267.83C1359.23 2272.15 1358.72 2275.84 1358.29 2278.84C1355.78 2296.37 1371.7 2308.41 1388.59 2312.56C1404.34 2316.43 1423.77 2313.68 1429.17 2298.48C1447.33 2247.38 1511.76 2129.56 1574.07 2015.62C1630.41 1912.61 1683.62 1815.31 1701.14 1770.6C1737.05 1678.98 1695.64 1475.08 1636.17 1321.01C1587.1 1193.87 1558.99 1090.17 1545.48 1040.34C1543.09 1031.54 1541.21 1024.59 1539.84 1019.89C1531.88 992.467 1462.88 842.704 1403.96 813.422C1393.7 808.327 1384.33 807.333 1376.1 810.47Z" fill="#1A1A1A"/>
<path d="M1493.59 2479.88C1475.45 2461.26 1465.27 2435.79 1459.02 2421.57C1440.6 2379.64 1433.79 2343.75 1433.03 2299.85C1396.49 2291.57 1369.11 2273.98 1359.61 2248.3C1340.58 2277.65 1315.89 2307.41 1300.62 2325.01C1293.2 2333.55 1297.23 2344.12 1304.29 2352.94C1327.08 2381.44 1371.58 2442.66 1391.62 2470.42C1396.7 2477.46 1403.79 2482.81 1411.96 2485.77L1488.41 2515.07C1507.07 2521.47 1511.99 2498.77 1493.59 2479.88Z" fill="white"/>
<path d="M1494.42 2520.26C1492.11 2520.26 1489.65 2519.82 1487.08 2518.94L1410.49 2489.6C1401.56 2486.36 1393.82 2480.52 1388.28 2472.82C1369.85 2447.27 1324.44 2384.71 1301.09 2355.5C1291.07 2342.98 1289.8 2331.2 1297.51 2322.33C1314.1 2303.22 1337.74 2274.49 1356.17 2246.08C1356.58 2245.44 1357.17 2244.93 1357.85 2244.61C1358.54 2244.28 1359.31 2244.15 1360.06 2244.24C1360.82 2244.32 1361.54 2244.61 1362.14 2245.08C1362.74 2245.55 1363.2 2246.17 1363.46 2246.89C1372.06 2270.12 1397.08 2287.51 1433.94 2295.86C1434.84 2296.06 1435.64 2296.56 1436.22 2297.27C1436.8 2297.98 1437.12 2298.86 1437.14 2299.78C1437.92 2345.45 1445.35 2380.26 1462.78 2419.93L1464.37 2423.57C1470.75 2438.25 1480.38 2460.44 1496.54 2477.03C1509.83 2490.68 1511.68 2505.88 1506.62 2513.84C1503.95 2518.05 1499.62 2520.26 1494.42 2520.26ZM1358.91 2256.81C1340.94 2283.51 1319.26 2309.8 1303.71 2327.69C1297.53 2334.81 1302.36 2343.97 1307.5 2350.39C1330.97 2379.75 1376.47 2442.44 1394.94 2468.03C1399.53 2474.41 1405.95 2479.25 1413.35 2481.92L1489.88 2511.24C1493.06 2512.33 1497.47 2512.95 1499.69 2509.45C1502.99 2504.26 1500.5 2492.86 1490.65 2482.74C1473.45 2465.07 1463.46 2442.06 1456.84 2426.83L1455.27 2423.22C1437.78 2383.41 1430.09 2348.39 1429 2303.11C1394.69 2294.73 1370.19 2278.49 1358.91 2256.81Z" fill="#1A1A1A"/>
<path d="M1404.64 2339.63C1403.63 2339.62 1402.66 2339.25 1401.91 2338.58C1401.15 2337.91 1400.68 2336.98 1400.56 2335.98C1400.45 2334.98 1400.71 2333.97 1401.3 2333.15C1401.89 2332.33 1402.75 2331.76 1403.74 2331.53L1433.09 2324.91C1434.14 2324.7 1435.23 2324.91 1436.12 2325.49C1437.02 2326.07 1437.65 2326.98 1437.89 2328.02C1438.13 2329.06 1437.95 2330.16 1437.39 2331.07C1436.83 2331.98 1435.94 2332.63 1434.9 2332.9L1405.55 2339.52C1405.25 2339.59 1404.95 2339.63 1404.64 2339.63ZM1412.49 2369.7C1411.48 2369.7 1410.51 2369.33 1409.76 2368.66C1409 2367.99 1408.53 2367.06 1408.42 2366.06C1408.3 2365.06 1408.57 2364.05 1409.15 2363.23C1409.74 2362.41 1410.6 2361.84 1411.59 2361.61L1433.24 2356.73C1433.77 2356.59 1434.32 2356.57 1434.87 2356.65C1435.41 2356.73 1435.93 2356.92 1436.39 2357.21C1436.86 2357.49 1437.27 2357.87 1437.59 2358.31C1437.91 2358.76 1438.13 2359.26 1438.25 2359.79C1438.37 2360.33 1438.39 2360.88 1438.29 2361.42C1438.19 2361.96 1437.99 2362.47 1437.69 2362.93C1437.39 2363.39 1437.01 2363.78 1436.55 2364.09C1436.1 2364.4 1435.59 2364.61 1435.05 2364.72L1413.4 2369.6C1413.1 2369.67 1412.8 2369.7 1412.49 2369.7ZM1420.61 2400.4C1419.6 2400.39 1418.62 2400.02 1417.87 2399.35C1417.12 2398.68 1416.64 2397.75 1416.53 2396.75C1416.42 2395.75 1416.68 2394.74 1417.27 2393.92C1417.85 2393.1 1418.72 2392.53 1419.7 2392.3L1446.16 2386.33C1447.22 2386.09 1448.34 2386.28 1449.26 2386.86C1450.18 2387.44 1450.83 2388.36 1451.07 2389.42C1451.31 2390.48 1451.12 2391.59 1450.54 2392.51C1449.96 2393.43 1449.03 2394.08 1447.97 2394.32L1421.51 2400.29C1421.22 2400.36 1420.91 2400.4 1420.61 2400.4Z" fill="#1A1A1A"/>
<path d="M2224.46 856.804C2224.46 856.804 2145.68 881.121 2113.55 878.017C2081.41 874.912 2021.08 769.136 2047.51 771.017C2073.94 772.899 2148.79 771.017 2158.36 747.631C2169.06 721.465 2181.44 682.86 2225.5 668.469C2276.98 651.65 2326.04 682.863 2349.49 712.871C2369.77 738.824 2224.46 856.804 2224.46 856.804Z" fill="#08F4DC"/>
<path d="M2119.76 882.384C2117.4 882.384 2115.19 882.291 2113.15 882.094C2083.57 879.238 2034.97 800.39 2036.96 776.812C2037.5 770.28 2041.66 766.485 2047.8 766.93C2082.06 769.366 2147.03 764.483 2154.56 746.08C2155.35 744.155 2156.14 742.162 2156.96 740.116C2167.36 714.111 2181.6 678.497 2224.22 664.573C2274.98 647.989 2326.42 676.675 2352.72 710.346C2359.14 718.554 2360.38 736.52 2297.43 797.506C2263.9 829.994 2227.41 859.683 2227.05 859.978C2226.64 860.308 2226.17 860.557 2225.67 860.712C2222.62 861.657 2155.05 882.384 2119.76 882.384ZM2046.64 775.073C2045.77 775.073 2045.31 775.401 2045.13 777.498C2044.32 787.184 2054.7 810.401 2069.81 832.703C2086.1 856.736 2103.42 872.921 2113.94 873.94C2143.24 876.761 2214.33 855.589 2222.49 853.121C2227.42 849.087 2260.86 821.529 2291.75 791.599C2351.98 733.243 2348.69 718.513 2346.25 715.389C2321.65 683.904 2273.77 657.006 2226.77 672.361C2187.8 685.094 2174.92 717.287 2164.58 743.156C2163.75 745.223 2162.95 747.236 2162.15 749.18C2150.9 776.69 2068.63 776.627 2047.22 775.103C2047.01 775.089 2046.81 775.073 2046.64 775.073Z" fill="#1A1A1A"/>
<path d="M2191.66 821.236C2191.06 822.028 2190.57 823.082 2190.24 824.502C2185.57 844.803 2148.61 857.321 2123.05 861.46L2129.09 877.867C2151.88 876.024 2183.09 868.364 2203.51 862.809C2197.53 849.988 2193.6 835.857 2191.66 821.236Z" fill="#1A1A1A"/>
<path d="M2129.09 881.962C2128.25 881.962 2127.43 881.705 2126.74 881.225C2126.05 880.746 2125.53 880.067 2125.24 879.281L2119.2 862.874C2118.98 862.307 2118.9 861.701 2118.96 861.099C2119.01 860.497 2119.19 859.914 2119.5 859.392C2119.81 858.87 2120.22 858.423 2120.72 858.081C2121.22 857.74 2121.79 857.514 2122.39 857.418C2150.44 852.877 2182.38 840.354 2186.24 823.587C2186.69 821.656 2187.39 820.078 2188.4 818.759C2188.89 818.113 2189.56 817.628 2190.33 817.364C2191.1 817.101 2191.93 817.072 2192.71 817.28C2193.5 817.488 2194.21 817.925 2194.74 818.534C2195.28 819.144 2195.62 819.899 2195.73 820.703C2197.65 835.261 2201.52 848.846 2207.23 861.086C2207.48 861.626 2207.61 862.215 2207.61 862.812C2207.61 863.408 2207.48 863.997 2207.23 864.538C2206.98 865.079 2206.61 865.558 2206.15 865.943C2205.7 866.327 2205.16 866.607 2204.58 866.763C2182.84 872.678 2152.14 880.114 2129.42 881.951C2129.31 881.957 2129.2 881.962 2129.09 881.962ZM2128.59 864.638L2131.85 873.502C2152.01 871.487 2177.87 865.4 2197.81 860.097C2194.4 851.962 2191.75 843.532 2189.88 834.911C2185.22 841.509 2177.32 847.478 2166.24 852.74C2155.6 857.795 2142.11 862.044 2128.59 864.638Z" fill="#1A1A1A"/>
<path d="M2364.71 740.555C2374.89 769.458 2365.29 801.276 2366.94 809.507C2368.59 817.737 2383.36 832.079 2383.02 842.049C2382.84 847.017 2367.35 849.51 2358.82 858.153C2343.95 873.24 2326.29 921.818 2292.87 921.479C2194.93 920.49 2168.14 800.217 2207.99 726.271C2238.65 669.375 2337.31 662.75 2364.71 740.555Z" fill="#08F4DC"/>
<path d="M2383.02 737.799C2407.41 720.513 2385.12 656.048 2339 616.725C2242.15 534.161 2109.92 537.044 2091.78 553.085C2072.54 570.092 2068.45 650.876 2141.01 707.791C2173.02 732.897 2364.83 750.691 2383.02 737.799Z" fill="white"/>
<path d="M2195.43 822.942C2194.13 822.938 2192.88 822.474 2191.89 821.632C2190.91 820.79 2190.25 819.626 2190.04 818.346C2189.84 817.067 2190.09 815.756 2190.77 814.647C2191.44 813.539 2192.48 812.705 2193.72 812.295C2231.54 799.818 2275.05 763.474 2281.2 713.165C2281.38 711.727 2282.12 710.418 2283.26 709.525C2284.4 708.633 2285.86 708.23 2287.3 708.406C2288.74 708.581 2290.05 709.321 2290.94 710.462C2291.84 711.603 2292.24 713.052 2292.06 714.49C2285.33 769.523 2238.15 809.143 2197.15 822.666C2196.58 822.854 2196 822.942 2195.43 822.942Z" fill="#1A1A1A"/>
<path d="M2201.4 866.922C2199.26 866.922 2197.22 865.649 2196.35 863.547C2181.7 828.161 2181.81 804.366 2182.53 783.593C2155.61 764.27 2151.5 717.877 2157.18 698.494C2157.61 697.13 2158.56 695.989 2159.83 695.316C2161.09 694.642 2162.57 694.49 2163.94 694.892C2165.31 695.294 2166.48 696.218 2167.18 697.465C2167.88 698.712 2168.06 700.184 2167.68 701.563C2162.55 719.068 2167.63 761.714 2190.97 776.097C2191.79 776.604 2192.47 777.319 2192.92 778.17C2193.38 779.021 2193.6 779.977 2193.57 780.941C2192.83 801.332 2191.99 824.442 2206.45 859.371C2206.8 860.201 2206.93 861.102 2206.84 861.995C2206.76 862.888 2206.45 863.746 2205.95 864.493C2205.45 865.239 2204.77 865.852 2203.98 866.275C2203.19 866.699 2202.3 866.921 2201.4 866.922Z" fill="#1A1A1A"/>
<path d="M2162.44 700.027C2158.13 716.204 2156.22 746.248 2176.26 766.945C2182.98 773.886 2187.66 784.105 2188.71 793.676C2186.11 756.942 2236.4 708.307 2236.4 708.307L2162.44 700.027Z" fill="#1A1A1A"/>
<path d="M2188.7 797.774C2187.69 797.773 2186.72 797.4 2185.97 796.726C2185.22 796.052 2184.74 795.125 2184.63 794.123C2183.67 785.332 2179.32 776.012 2173.3 769.794C2153.81 749.666 2152.86 720.015 2158.47 698.975C2158.72 698.026 2159.31 697.2 2160.12 696.646C2160.93 696.092 2161.91 695.848 2162.89 695.957L2236.85 704.234C2237.62 704.321 2238.36 704.625 2238.96 705.111C2239.57 705.597 2240.03 706.246 2240.28 706.981C2240.53 707.716 2240.57 708.508 2240.38 709.263C2240.2 710.018 2239.81 710.706 2239.25 711.247C2238.76 711.719 2190.36 758.989 2192.8 793.385C2192.84 793.947 2192.76 794.51 2192.58 795.041C2192.39 795.571 2192.09 796.058 2191.71 796.469C2191.32 796.881 2190.86 797.21 2190.34 797.434C2189.83 797.658 2189.27 797.774 2188.7 797.774ZM2165.59 704.505C2163.29 715.474 2159.75 744.005 2179.21 764.101C2182.19 767.175 2184.82 770.881 2186.97 774.909C2194.41 749.18 2216.79 723.016 2227.62 711.446L2165.59 704.505ZM2275.08 734.587C2279.57 743.492 2332.56 806.752 2366.75 806.96C2383.02 807.058 2379.96 777.987 2369.39 775.906C2351.61 772.405 2326.05 775.33 2311.7 762.809C2297.36 750.291 2277.15 723.83 2277.15 723.83L2275.08 734.587Z" fill="#1A1A1A"/>
<path d="M2366.83 811.056H2366.72C2330.78 810.837 2276.44 746.391 2271.41 736.43C2271 735.622 2270.88 734.702 2271.05 733.813L2273.12 723.057C2273.27 722.281 2273.64 721.564 2274.19 720.994C2274.74 720.423 2275.44 720.024 2276.21 719.843C2276.98 719.662 2277.79 719.708 2278.54 719.975C2279.28 720.242 2279.93 720.719 2280.41 721.348C2280.61 721.61 2300.54 747.626 2314.4 759.726C2323.4 767.579 2337.96 768.713 2352.05 769.81C2358.5 770.313 2364.59 770.788 2370.18 771.886C2378.83 773.59 2383.1 785.34 2382.1 795.25C2381.11 805.01 2375.27 811.056 2366.83 811.056ZM2279.39 733.874C2286.83 745.739 2336.46 802.678 2366.77 802.863C2372.12 802.904 2373.54 798.295 2373.93 794.428C2374.64 787.448 2371.53 780.501 2368.59 779.922C2363.47 778.915 2357.61 778.459 2351.41 777.975C2336.71 776.831 2320.05 775.534 2309 765.892C2299.04 757.197 2286.57 742.262 2279.48 733.426L2279.39 733.874ZM2313.6 869.18C2312.85 869.18 2312.08 868.972 2311.4 868.538C2310.62 868.047 2292.4 856.269 2292.4 839.213C2292.4 838.126 2292.83 837.084 2293.6 836.316C2294.37 835.548 2295.41 835.116 2296.5 835.116C2297.59 835.116 2298.63 835.548 2299.4 836.316C2300.17 837.084 2300.6 838.126 2300.6 839.213C2300.6 851.621 2315.65 861.531 2315.81 861.627C2316.56 862.103 2317.13 862.809 2317.45 863.639C2317.76 864.47 2317.79 865.379 2317.55 866.231C2317.3 867.083 2316.78 867.831 2316.07 868.363C2315.35 868.895 2314.49 869.181 2313.6 869.18Z" fill="#1A1A1A"/>
<path d="M1374.64 806.644C1512.85 738.659 1919.49 696.788 2053.94 774.533C2180.41 847.66 2171.85 953.289 2132.72 1006.33C2114.28 1031.33 1980 1168.01 1858.37 1156.72C1730.35 1144.85 1664.88 1127.75 1606.83 1107.05C1532.63 1080.6 1385.7 927.688 1374.64 806.644Z" fill="white"/>
<path d="M1901.22 1003.57C1859.76 962.181 1832.46 1087.05 1802.05 1111.88C1771.65 1136.72 1688.03 1087.5 1642.42 1076.66C1609.35 1068.81 1584.37 1076.66 1567.51 1085.99C1581.86 1095.69 1595.23 1102.92 1606.83 1107.05C1664.88 1127.75 1730.35 1144.84 1858.37 1156.72C1876.5 1158.41 1894.9 1156.78 1913.16 1152.75C1921.12 1099.68 1926.09 1028.4 1901.22 1003.57Z" fill="#08F4DC"/>
<path d="M2132.72 1006.33C2065.74 1101.04 2028.91 1206.91 2064.32 1284.18C2099.9 1361.85 2159.03 1403.01 2296.06 1419.74C2337.52 1413.53 2352.47 1424.92 2361.8 1434.23C2372.5 1444.9 2384.63 1485.38 2364.43 1492.71C2362.58 1504.44 2354.54 1514.01 2344.82 1508.83C2342.88 1518.48 2327.67 1524.11 2321.8 1518.48C2317.31 1533.06 2293.12 1542.07 2278.95 1523.09C2283.82 1521.05 2286.51 1519.51 2291.78 1517.27C2294.63 1503.82 2283.29 1493.54 2262.95 1493.3C2212.61 1492.71 1973.44 1469.5 1898.46 1318.37C1844.94 1210.5 1862.52 1043.59 1920.57 941.486L2132.72 1006.33Z" fill="#08F4DC"/>
<path d="M1920.57 941.484C1903.68 971.198 1890.24 1006.42 1880.96 1044.05C1930.72 1044.07 2035.58 1073.81 2071.19 1118.43C2085.64 1080.92 2106.93 1042.8 2132.72 1006.33L2033.21 952.006L1920.57 941.484Z" fill="white"/>
<path d="M2261.26 597.236C2305.04 611.16 2342.74 632.566 2371.91 654.514C2363.19 640.996 2352.05 627.853 2339 616.725C2242.15 534.161 2109.92 537.044 2091.78 553.085C2086.53 557.724 2082.43 567.132 2080.68 579.483C2141.53 566.837 2186.13 573.344 2261.26 597.236ZM1402.92 896.538C1419.75 881.606 1443.49 866.079 1470.84 864.129C1482.87 863.272 1497.51 863.135 1513.01 862.991C1561.55 862.54 1616.56 862.032 1637.46 839.637C1643.81 832.824 1646.74 824.473 1646.14 814.815C1644.33 785.568 1651.86 760.489 1668.47 739.893C1662.43 740.491 1656.4 741.117 1650.39 741.78C1636.91 762.982 1630.78 787.936 1632.49 815.656C1632.85 821.51 1631.2 826.308 1627.45 830.331C1610.56 848.433 1556.4 848.933 1512.88 849.337C1497.17 849.484 1482.33 849.621 1469.87 850.508C1440.24 852.622 1415.01 868.083 1396.74 883.643C1398.69 887.944 1400.76 892.245 1402.92 896.538ZM1938.65 779.23C1950.27 768.394 1961.57 757.837 1971.65 746.223C1966.41 745.161 1961.16 744.18 1955.89 743.28C1947.59 752.19 1938.56 760.628 1929.31 769.252C1903.13 793.67 1876.04 818.922 1858.96 860.205C1851.6 878.007 1846.92 900.631 1842.39 922.51C1829.28 985.826 1817.48 1027.01 1774.71 1022.99C1642.61 1010.54 1552.39 1014.24 1505.32 1033.92C1508.91 1037.46 1512.54 1040.96 1516.22 1044.4C1552.23 1031.48 1625.34 1022.64 1773.42 1036.59C1831.61 1042.06 1844.45 980.017 1855.78 925.274C1860.38 903.035 1864.73 882.029 1871.6 865.418C1887.55 826.874 1913.53 802.654 1938.65 779.23Z" fill="#08F4DC"/>
<path d="M1717.83 951.757C1720.51 952.112 1723.08 952.281 1725.53 952.281C1762.51 952.276 1774.52 913.442 1786.14 875.809C1793.63 851.587 1801.37 826.541 1815.37 808.791C1836.46 782.059 1860.82 765.953 1882.31 751.743C1890.27 746.478 1897.67 741.573 1904.15 736.598C1897.09 735.948 1890.02 735.386 1882.95 734.91C1880.33 736.674 1877.6 738.482 1874.76 740.358C1853.51 754.405 1827.08 771.887 1804.62 800.342C1789.05 820.083 1780.92 846.366 1773.07 871.784C1759.54 915.564 1749.72 942.188 1719.62 938.221C1642.87 928.098 1517.92 954.42 1467.64 993.013C1470.5 996.423 1473.39 999.801 1476.33 1003.15C1520.68 969.491 1640.57 941.56 1717.83 951.757ZM2120.22 828.16C2126.93 899.739 2086.06 956.727 2072.77 973.125C2051.05 999.944 2030.32 1012.46 2019.42 1012.97C1996.4 1014.03 1986.11 1008.65 1974.2 1002.4C1958.52 994.193 1940.76 984.887 1894.37 988.633L1895.47 1002.24C1937.91 998.819 1953.12 1006.78 1967.84 1014.49C1979.36 1020.53 1991.24 1026.75 2013.84 1026.75C2015.82 1026.75 2017.89 1026.7 2020.05 1026.6C2037.35 1025.8 2061.62 1008.6 2083.41 981.708C2115.44 942.169 2133.49 893.89 2134.51 847.467C2130.19 840.718 2125.41 834.268 2120.22 828.16Z" fill="#08F4DC"/>
<path d="M2034.32 897.779C1990 930.559 1953.11 945.177 1914.71 945.177V958.831C1956.24 958.831 1995.64 943.386 2042.46 908.752C2074.83 884.808 2079.58 832.828 2072.7 786.291C2067.72 782.919 2062.63 779.695 2057.46 776.621C2066.63 823.342 2063.16 876.449 2034.32 897.779Z" fill="#08F4DC"/>
<path d="M1863.83 1159.23H1863.72C1746.78 1156.11 1667.54 1133.05 1605.45 1110.91C1566.88 1097.16 1511.33 1051.64 1463.91 994.948C1431.97 956.755 1377.36 881.553 1370.55 807.02C1370.48 806.195 1370.65 805.367 1371.06 804.644C1371.46 803.922 1372.08 803.339 1372.82 802.973C1441.31 769.283 1575.79 741.369 1715.42 731.856C1870.57 721.287 1994.71 735.55 2056 770.99C2128.48 812.902 2152.25 862.667 2159.42 897.034C2167.58 936.078 2158.83 977.845 2136.03 1008.76C2135.71 1009.2 2135.3 1009.56 2134.84 1009.84C2134.38 1010.12 2133.87 1010.3 2133.34 1010.38C2132.81 1010.46 2132.26 1010.44 2131.74 1010.31C2131.22 1010.18 2130.72 1009.95 2130.29 1009.63C2129.86 1009.31 2129.49 1008.91 2129.21 1008.45C2128.93 1007.99 2128.75 1007.48 2128.67 1006.95C2128.59 1006.42 2128.61 1005.87 2128.74 1005.35C2128.87 1004.83 2129.1 1004.34 2129.42 1003.9C2150.86 974.833 2159.08 935.505 2151.39 898.705C2141.59 851.766 2107.18 810.054 2051.89 778.079C1991.97 743.437 1869.54 729.567 1715.98 740.029C1579.06 749.357 1447.37 776.383 1379 809.081C1392.11 930.251 1538.07 1078.19 1608.21 1103.2C1669.69 1125.12 1748.16 1147.94 1863.94 1151.04C1865.02 1151.05 1866.06 1151.5 1866.82 1152.28C1867.58 1153.06 1868 1154.1 1867.99 1155.19C1867.97 1156.28 1867.53 1157.31 1866.75 1158.07C1865.97 1158.83 1864.92 1159.25 1863.83 1159.23ZM2345 746.258C2280.81 746.258 2163.43 730.586 2138.48 711.009C2083.61 667.969 2076.3 616.421 2075.7 596.254C2075.09 575.555 2080.21 557.838 2089.05 550.017C2110.17 531.341 2244.99 531.202 2341.66 613.608C2374.62 641.702 2398.44 685.804 2397.08 716.192C2396.58 727.451 2392.54 736.077 2385.4 741.137C2380.41 744.679 2365.39 746.258 2345 746.258ZM2139.62 548.215C2116.18 548.215 2099.55 551.68 2094.5 556.15C2089.21 560.828 2083.26 574.075 2083.91 596.014C2084.47 615.025 2091.4 663.666 2143.55 704.567C2176.28 730.242 2366.2 744.701 2380.65 734.458C2385.72 730.864 2388.49 724.594 2388.88 715.829C2389.96 691.926 2371.9 650.162 2336.33 619.84C2270.91 564.072 2189.73 548.215 2139.62 548.215Z" fill="#1A1A1A"/>
<path d="M2232.2 769.473C2239.76 762.723 2238.35 748.842 2229.06 738.471C2219.76 728.099 2206.1 725.164 2198.54 731.915C2190.99 738.666 2192.39 752.546 2201.69 762.918C2210.98 773.289 2224.65 776.224 2232.2 769.473Z" fill="#08F4DC"/>
<path d="M2201.4 747.736C2200.75 747.737 2200.11 747.582 2199.53 747.284C2198.95 746.987 2198.45 746.555 2198.07 746.025C2197.69 745.495 2197.44 744.883 2197.34 744.238C2197.25 743.593 2197.31 742.935 2197.52 742.318C2198.83 738.484 2202.2 735.655 2206.54 734.749C2212.34 733.539 2218.78 735.887 2223.35 740.874C2224.07 741.678 2224.44 742.732 2224.38 743.808C2224.32 744.883 2223.85 745.893 2223.05 746.62C2222.26 747.346 2221.2 747.731 2220.13 747.69C2219.05 747.649 2218.03 747.186 2217.29 746.401C2214.16 742.979 2210.55 742.28 2208.22 742.766C2207.52 742.914 2205.81 743.424 2205.29 744.956C2205.01 745.766 2204.49 746.47 2203.79 746.968C2203.1 747.467 2202.26 747.735 2201.4 747.736Z" fill="#1A1A1A"/>
<path d="M2215.92 760.544C2215.07 760.544 2214.24 760.281 2213.55 759.792C2212.85 759.303 2212.33 758.612 2212.05 757.814L2205.7 739.9C2205.51 739.39 2205.42 738.848 2205.44 738.305C2205.47 737.762 2205.6 737.229 2205.83 736.736C2206.06 736.244 2206.38 735.802 2206.79 735.437C2207.19 735.072 2207.66 734.791 2208.18 734.609C2208.69 734.428 2209.23 734.351 2209.78 734.382C2210.32 734.413 2210.85 734.551 2211.34 734.789C2211.83 735.028 2212.27 735.361 2212.63 735.769C2212.99 736.178 2213.26 736.654 2213.43 737.169L2219.78 755.083C2220 755.701 2220.07 756.362 2219.98 757.011C2219.89 757.66 2219.64 758.278 2219.27 758.813C2218.89 759.348 2218.38 759.784 2217.8 760.086C2217.22 760.387 2216.57 760.544 2215.92 760.544ZM2293.23 925.578L2292.83 925.575C2223.84 924.879 2192.82 867.716 2187.23 818.98C2187.16 818.441 2187.19 817.893 2187.34 817.368C2187.48 816.843 2187.72 816.352 2188.06 815.924C2188.39 815.495 2188.81 815.137 2189.29 814.871C2189.76 814.605 2190.29 814.436 2190.83 814.374C2191.37 814.312 2191.92 814.358 2192.44 814.51C2192.96 814.661 2193.45 814.916 2193.87 815.257C2194.3 815.599 2194.65 816.022 2194.91 816.501C2195.17 816.979 2195.33 817.505 2195.38 818.046C2203.71 890.643 2251.23 916.962 2292.91 917.383L2293.21 917.385C2314.72 917.385 2329.7 893.879 2341.75 874.974C2346.92 866.866 2351.38 859.865 2355.9 855.28C2360.63 850.49 2367 847.503 2372.13 845.102C2374.6 843.944 2377.91 842.391 2378.92 841.429C2378.75 837.022 2374.42 830.545 2370.59 824.805C2367.08 819.562 2363.78 814.608 2362.91 810.31C2362.28 807.169 2362.84 802.352 2363.61 795.686C2365.2 781.918 2367.6 761.115 2360.84 741.915C2360.48 740.89 2360.54 739.764 2361.01 738.785C2361.48 737.805 2362.32 737.052 2363.35 736.691C2364.38 736.33 2365.5 736.392 2366.48 736.861C2367.47 737.331 2368.22 738.17 2368.58 739.195C2375.97 760.176 2373.44 782.109 2371.76 796.623C2371.16 801.869 2370.58 806.825 2370.96 808.701C2371.5 811.41 2374.51 815.908 2377.41 820.255C2382.3 827.576 2387.36 835.146 2387.12 842.189C2386.94 847.205 2381.69 849.665 2375.61 852.514C2370.84 854.747 2365.44 857.279 2361.75 861.023C2357.84 864.99 2353.39 871.973 2348.67 879.368C2335.55 899.969 2319.23 925.575 2293.23 925.578Z" fill="#1A1A1A"/>
<path d="M2340.29 784.623C2342.87 773.392 2380.77 766.699 2375.46 794.454C2370.34 821.188 2337.44 797.043 2340.29 784.623Z" fill="white"/>
<path d="M2363.58 810.657C2356.75 810.657 2349.74 806.654 2344.89 802.26C2338.22 796.228 2335.01 789.292 2336.29 783.71C2338.47 774.235 2354.11 769.005 2365.39 771.364C2376.62 773.718 2381.89 782.637 2379.48 795.223C2377.63 804.939 2372.54 808.549 2368.6 809.865C2366.98 810.399 2365.29 810.666 2363.58 810.657ZM2359.61 778.975C2352.24 778.975 2344.97 782.593 2344.29 785.54C2343.81 787.648 2345.75 791.982 2350.4 796.193C2355.68 800.971 2362.09 803.399 2365.99 802.096C2368.7 801.193 2370.53 798.363 2371.42 793.688C2372.99 785.48 2370.47 780.802 2363.71 779.385C2362.36 779.107 2360.98 778.97 2359.61 778.975ZM2373.87 740.592C2372.77 710.007 2289.89 698.956 2250.55 685.542C2215.79 673.696 2270.91 656.569 2244.67 635.872C2228.16 622.847 2201.14 642.77 2158.36 626.214C2123.28 612.639 2107.13 574.952 2103.97 547.748C2098.26 549.214 2094.09 551.044 2091.78 553.087C2072.54 570.094 2068.46 650.875 2141.02 707.792C2170.09 730.594 2330.96 747.364 2373.87 740.592Z" fill="#1A1A1A"/>
<path d="M2348.33 746.076C2286.92 746.076 2164.65 731.534 2138.48 711.01C2083.61 667.971 2076.3 616.419 2075.7 596.255C2075.09 575.556 2080.21 557.842 2089.06 550.021C2091.88 547.525 2096.55 545.425 2102.95 543.781C2103.51 543.634 2104.11 543.611 2104.68 543.712C2105.26 543.814 2105.81 544.038 2106.29 544.369C2106.78 544.7 2107.18 545.131 2107.49 545.633C2107.79 546.134 2107.98 546.695 2108.05 547.277C2112.99 589.838 2139.03 614.344 2159.84 622.394C2182.17 631.037 2200.13 629.328 2214.56 627.954C2227.34 626.739 2238.38 625.688 2247.21 632.659C2263.29 645.341 2253.68 658.375 2247.94 666.163C2245.24 669.822 2242.18 673.97 2242.85 676.108C2243.11 676.944 2244.52 679.159 2251.87 681.665C2261.56 684.967 2274.06 688.156 2287.29 691.534C2329.36 702.274 2377.04 714.445 2377.98 740.442C2378.01 741.443 2377.68 742.421 2377.04 743.194C2376.41 743.967 2375.51 744.48 2374.52 744.637C2368.32 745.612 2359.29 746.076 2348.33 746.076ZM2100.57 553.038C2096.98 554.303 2095.27 555.469 2094.5 556.149C2089.21 560.827 2083.26 574.071 2083.91 596.012C2084.47 615.027 2091.4 663.664 2143.55 704.568C2170.25 725.508 2321.38 742.198 2369.11 737.081C2363.25 719.38 2320.24 708.402 2285.26 699.47C2271.86 696.051 2259.21 692.823 2249.22 689.415C2240.98 686.605 2236.46 683.154 2235.02 678.552C2233.11 672.449 2237.28 666.78 2241.33 661.299C2248.13 652.075 2251.53 646.493 2242.13 639.082C2235.87 634.15 2227.26 634.969 2215.34 636.103C2200.05 637.558 2181.01 639.371 2156.87 630.027C2122.19 616.605 2105.16 581.25 2100.57 553.038Z" fill="#1A1A1A"/>
<path d="M2316.68 1486.28C2322.04 1495.97 2324.83 1507.69 2321.8 1518.48Z" fill="#08F4DC"/>
<path d="M2321.8 1522.58C2321.17 1522.58 2320.54 1522.43 2319.97 1522.15C2319.41 1521.87 2318.91 1521.46 2318.53 1520.95C2318.15 1520.45 2317.88 1519.86 2317.77 1519.24C2317.65 1518.62 2317.68 1517.98 2317.85 1517.37C2321.17 1505.54 2316.29 1494.06 2313.09 1488.26C2312.82 1487.79 2312.65 1487.27 2312.58 1486.73C2312.51 1486.19 2312.56 1485.65 2312.7 1485.12C2312.85 1484.6 2313.1 1484.11 2313.44 1483.69C2313.78 1483.26 2314.19 1482.91 2314.67 1482.65C2315.15 1482.38 2315.67 1482.22 2316.21 1482.16C2316.75 1482.1 2317.3 1482.15 2317.82 1482.3C2318.34 1482.46 2318.82 1482.71 2319.25 1483.06C2319.67 1483.4 2320.02 1483.82 2320.27 1484.3C2326.85 1496.2 2328.8 1508.73 2325.75 1519.58C2325.51 1520.44 2324.99 1521.2 2324.28 1521.74C2323.57 1522.28 2322.7 1522.57 2321.8 1522.58Z" fill="#1A1A1A"/>
<path d="M2339.68 1476.59C2345.05 1486.29 2347.85 1498.03 2344.82 1508.83Z" fill="#08F4DC"/>
<path d="M2344.82 1512.93C2344.19 1512.93 2343.56 1512.78 2342.99 1512.5C2342.42 1512.22 2341.93 1511.81 2341.55 1511.31C2341.16 1510.8 2340.9 1510.22 2340.78 1509.6C2340.67 1508.97 2340.69 1508.33 2340.87 1507.72C2344.2 1495.88 2339.3 1484.38 2336.09 1478.58C2335.56 1477.63 2335.43 1476.51 2335.73 1475.46C2336.03 1474.42 2336.74 1473.53 2337.69 1473.01C2338.64 1472.48 2339.77 1472.36 2340.81 1472.66C2341.86 1472.96 2342.74 1473.66 2343.27 1474.61C2349.87 1486.52 2351.82 1499.07 2348.77 1509.94C2348.53 1510.8 2348.01 1511.55 2347.3 1512.09C2346.58 1512.63 2345.71 1512.93 2344.82 1512.93Z" fill="#1A1A1A"/>
<path d="M2358.96 1465.57C2363.87 1475.83 2366.29 1487.88 2363.39 1498.2Z" fill="#08F4DC"/>
<path d="M2363.4 1502.3C2362.76 1502.3 2362.14 1502.15 2361.57 1501.87C2361 1501.59 2360.51 1501.18 2360.13 1500.68C2359.74 1500.17 2359.48 1499.59 2359.36 1498.97C2359.25 1498.34 2359.27 1497.7 2359.45 1497.1C2361.81 1488.69 2360.28 1477.84 2355.26 1467.33C2355.01 1466.85 2354.87 1466.32 2354.83 1465.77C2354.8 1465.23 2354.87 1464.69 2355.05 1464.17C2355.22 1463.66 2355.5 1463.18 2355.87 1462.78C2356.23 1462.37 2356.67 1462.04 2357.16 1461.81C2357.65 1461.57 2358.19 1461.44 2358.73 1461.41C2359.27 1461.38 2359.82 1461.47 2360.33 1461.65C2360.84 1461.84 2361.31 1462.13 2361.71 1462.49C2362.11 1462.86 2362.44 1463.31 2362.66 1463.8C2368.62 1476.26 2370.28 1488.87 2367.34 1499.31C2367.1 1500.17 2366.59 1500.93 2365.87 1501.47C2365.16 1502.01 2364.29 1502.3 2363.4 1502.3Z" fill="#1A1A1A"/>
<path d="M2064.32 1284.18C2039.54 1230.11 2050.17 1162.03 2081.71 1093.58L2053.4 1076.31C2040.47 1113.95 1993.71 1184.18 2025.95 1282.63C2047.8 1349.34 2102.48 1376.26 2143.09 1384.31C2106.46 1356.51 2081.53 1321.75 2064.32 1284.18Z" fill="white"/>
<path d="M2299.04 1537.97C2290.01 1537.97 2281.68 1533.6 2275.66 1525.54C2275.29 1525.04 2275.04 1524.47 2274.92 1523.86C2274.81 1523.24 2274.83 1522.62 2275 1522.02C2275.16 1521.42 2275.46 1520.86 2275.87 1520.39C2276.28 1519.93 2276.79 1519.56 2277.36 1519.31C2279.76 1518.31 2281.61 1517.43 2283.52 1516.52C2285.03 1515.8 2286.54 1515.1 2288.06 1514.42C2288.34 1511.05 2287.44 1508.05 2285.38 1505.47C2281.35 1500.46 2273.16 1497.51 2262.9 1497.39C2259.55 1497.35 2179.81 1496.09 2088.66 1466.18C1992.4 1434.58 1927.16 1385.46 1894.78 1320.19C1838.12 1205.99 1861.58 1036.93 1917 939.463C1917.27 938.995 1917.62 938.584 1918.05 938.253C1918.47 937.923 1918.96 937.679 1919.48 937.536C1920 937.393 1920.54 937.354 1921.07 937.42C1921.61 937.486 1922.12 937.657 1922.59 937.923C1923.06 938.188 1923.47 938.543 1923.8 938.968C1924.14 939.392 1924.38 939.877 1924.52 940.396C1924.67 940.914 1924.71 941.456 1924.64 941.99C1924.57 942.524 1924.4 943.039 1924.14 943.507C1869.78 1039.12 1846.68 1204.8 1902.13 1316.55C1933.5 1379.79 1997.12 1427.51 2091.23 1458.4C2163.2 1482.02 2235.06 1488.88 2263 1489.2C2275.91 1489.35 2286.13 1493.31 2291.78 1500.35C2295.81 1505.37 2297.2 1511.51 2295.8 1518.12C2295.66 1518.76 2295.37 1519.36 2294.95 1519.87C2294.53 1520.38 2294 1520.78 2293.39 1521.04C2290.85 1522.12 2288.92 1523.03 2287.05 1523.92L2285.76 1524.53C2292.02 1530.15 2298.75 1530.12 2302.57 1529.47C2309.75 1528.23 2316.05 1523.21 2317.88 1517.27C2318.08 1516.6 2318.46 1516 2318.96 1515.52C2319.47 1515.03 2320.09 1514.69 2320.77 1514.51C2321.45 1514.34 2322.16 1514.34 2322.84 1514.51C2323.51 1514.69 2324.13 1515.04 2324.64 1515.52C2325.96 1516.79 2328.96 1516.97 2332.1 1515.99C2335.87 1514.81 2340.02 1511.89 2340.79 1508.02C2340.92 1507.4 2341.19 1506.81 2341.58 1506.31C2341.98 1505.8 2342.48 1505.4 2343.06 1505.13C2343.64 1504.85 2344.27 1504.72 2344.91 1504.73C2345.55 1504.75 2346.18 1504.91 2346.74 1505.21C2348.91 1506.37 2350.88 1506.47 2352.76 1505.54C2356.32 1503.77 2359.39 1498.35 2360.38 1492.07C2360.61 1490.6 2361.63 1489.37 2363.03 1488.86C2366.96 1487.44 2369.42 1484.26 2370.55 1479.15C2373.6 1465.42 2365.68 1443.9 2358.9 1437.12C2352 1430.24 2339.16 1417.42 2296.66 1423.79C2296.3 1423.84 2295.92 1423.85 2295.55 1423.8C2164.61 1407.82 2098.73 1369.15 2060.58 1285.88C2027.95 1214.67 2053.02 1111.92 2129.37 1003.97C2129.67 1003.52 2130.07 1003.14 2130.52 1002.85C2130.98 1002.56 2131.49 1002.36 2132.02 1002.26C2132.56 1002.17 2133.11 1002.18 2133.64 1002.3C2134.17 1002.41 2134.67 1002.64 2135.11 1002.95C2135.55 1003.26 2135.93 1003.66 2136.22 1004.12C2136.51 1004.58 2136.7 1005.09 2136.79 1005.62C2136.88 1006.16 2136.86 1006.7 2136.74 1007.23C2136.61 1007.76 2136.38 1008.26 2136.07 1008.7C2061.45 1114.2 2036.66 1213.98 2068.04 1282.47C2105.24 1363.67 2167.05 1399.78 2296 1415.6C2336.66 1409.63 2353.54 1420.19 2364.7 1431.33C2372.9 1439.52 2382.33 1463.95 2378.56 1480.93C2377.03 1487.85 2373.41 1492.87 2368.06 1495.6C2366.26 1503.63 2361.92 1510.14 2356.41 1512.88C2353.57 1514.33 2350.31 1514.74 2347.19 1514.05C2344.75 1518.44 2340.17 1522.05 2334.56 1523.81C2330.66 1525.03 2326.89 1525.13 2323.75 1524.18C2319.87 1530.94 2312.43 1536.08 2303.96 1537.54C2302.31 1537.82 2300.66 1537.97 2299.04 1537.97Z" fill="#1A1A1A"/>
<path d="M2071.19 1122.53C2069.99 1122.53 2068.79 1122 2067.98 1120.98C2052.53 1101.63 2021.29 1082.94 1980.01 1068.38C1945.21 1056.1 1906.33 1048.16 1880.96 1048.15C1879.87 1048.15 1878.82 1047.72 1878.05 1046.95C1877.28 1046.18 1876.85 1045.14 1876.85 1044.06C1876.85 1042.97 1877.28 1041.93 1878.05 1041.16C1878.82 1040.39 1879.87 1039.96 1880.96 1039.96C1927.8 1039.97 2036.83 1068.81 2074.39 1115.88C2074.87 1116.48 2075.18 1117.21 2075.26 1117.97C2075.35 1118.74 2075.22 1119.51 2074.88 1120.21C2074.55 1120.9 2074.02 1121.49 2073.37 1121.9C2072.72 1122.31 2071.96 1122.52 2071.19 1122.53Z" fill="#1A1A1A"/>
</g>
<g clip-path="url(#clip3_578_2155)">
<path d="M1655.57 609.878H912.28C911.193 609.878 910.151 609.446 909.382 608.676C908.614 607.905 908.182 606.861 908.182 605.771C908.182 604.682 908.614 603.637 909.382 602.867C910.151 602.097 911.193 601.664 912.28 601.664H1655.57C1656.66 601.664 1657.7 602.097 1658.47 602.867C1659.24 603.637 1659.67 604.682 1659.67 605.771C1659.67 606.861 1659.24 607.905 1658.47 608.676C1657.7 609.446 1656.66 609.878 1655.57 609.878ZM1872.27 662.727H1520.99C1519.91 662.727 1518.86 662.294 1518.09 661.524C1517.33 660.754 1516.89 659.709 1516.89 658.62C1516.89 657.53 1517.33 656.486 1518.09 655.715C1518.86 654.945 1519.91 654.512 1520.99 654.512H1872.26C1872.8 654.512 1873.33 654.618 1873.83 654.825C1874.33 655.031 1874.78 655.333 1875.16 655.714C1875.54 656.096 1875.84 656.548 1876.05 657.047C1876.26 657.545 1876.36 658.079 1876.36 658.618C1876.36 659.158 1876.26 659.692 1876.05 660.19C1875.85 660.688 1875.54 661.141 1875.16 661.523C1874.78 661.904 1874.33 662.207 1873.83 662.414C1873.34 662.62 1872.8 662.727 1872.27 662.727ZM1683.85 542.759H1443.18C1442.09 542.759 1441.05 542.327 1440.28 541.556C1439.51 540.786 1439.08 539.741 1439.08 538.652C1439.08 537.563 1439.51 536.518 1440.28 535.748C1441.05 534.978 1442.09 534.545 1443.18 534.545H1683.85C1684.93 534.545 1685.97 534.978 1686.74 535.748C1687.51 536.518 1687.94 537.563 1687.94 538.652C1687.94 539.741 1687.51 540.786 1686.74 541.556C1685.97 542.327 1684.93 542.759 1683.85 542.759Z" fill="#1A1A1A"/>
</g>
<g clip-path="url(#clip4_578_2155)">
<path d="M952.488 1246.36H656.118C654.978 1246.36 653.884 1245.9 653.078 1245.09C652.271 1244.27 651.818 1243.16 651.818 1242.01C651.818 1240.86 652.271 1239.75 653.078 1238.93C653.884 1238.12 654.978 1237.66 656.118 1237.66H952.488C953.629 1237.66 954.722 1238.12 955.529 1238.93C956.335 1239.75 956.788 1240.86 956.788 1242.01C956.788 1243.16 956.335 1244.27 955.529 1245.09C954.722 1245.9 953.629 1246.36 952.488 1246.36ZM1094.79 1246.36H1023.1C1021.96 1246.36 1020.86 1245.9 1020.06 1245.09C1019.25 1244.27 1018.8 1243.16 1018.8 1242.01C1018.8 1240.86 1019.25 1239.75 1020.06 1238.93C1020.86 1238.12 1021.96 1237.66 1023.1 1237.66H1094.79C1095.93 1237.66 1097.03 1238.12 1097.83 1238.93C1098.64 1239.75 1099.09 1240.86 1099.09 1242.01C1099.09 1243.16 1098.64 1244.27 1097.83 1245.09C1097.03 1245.9 1095.93 1246.36 1094.79 1246.36ZM982.903 1075.07H823.22C822.079 1075.07 820.986 1074.61 820.179 1073.79C819.373 1072.98 818.92 1071.87 818.92 1070.72C818.92 1069.56 819.373 1068.45 820.179 1067.64C820.986 1066.82 822.079 1066.36 823.22 1066.36H982.903C984.043 1066.36 985.137 1066.82 985.943 1067.64C986.749 1068.45 987.202 1069.56 987.202 1070.72C987.202 1071.87 986.749 1072.98 985.943 1073.79C985.137 1074.61 984.043 1075.07 982.903 1075.07Z" fill="#1A1A1A"/>
</g>
</g>
<defs>
<clipPath id="clip0_578_2155">
<rect width="3000" height="3000" fill="white"/>
</clipPath>
<clipPath id="clip1_578_2155">
<rect width="2247.27" height="2678.18" fill="white" transform="translate(-113.5 860.361) rotate(-26.0161)"/>
</clipPath>
<clipPath id="clip2_578_2155">
<rect width="2509.09" height="2187.27" fill="white" transform="translate(384.545 540)"/>
</clipPath>
<clipPath id="clip3_578_2155">
<rect width="968.182" height="128.182" fill="white" transform="translate(908.182 534.545)"/>
</clipPath>
<clipPath id="clip4_578_2155">
<rect width="447.273" height="180" fill="white" transform="translate(651.818 1066.36)"/>
</clipPath>
</defs>
</svg>
